<svg id="svg" version="1.1" width="512" height="422" xmlns="http://www.w3.org/2000/svg"><path d="M280.000 2.874 C 280.000 4.455,279.302 7.718,278.450 10.124 C 277.597 12.531,275.748 19.225,274.341 25.000 C 272.934 30.775,270.987 36.850,270.015 38.500 C 269.043 40.150,267.230 44.650,265.987 48.500 C 263.573 55.972,254.636 70.572,249.570 75.317 C 247.882 76.899,244.700 79.000,242.500 79.987 C 235.646 83.061,231.640 87.891,228.853 96.445 C 227.561 100.407,227.150 100.959,226.950 99.000 C 226.517 94.749,226.469 94.535,225.665 93.250 C 224.512 91.409,220.914 91.739,217.500 94.000 C 215.577 95.274,212.807 95.989,209.785 95.993 C 205.930 95.999,204.424 95.433,201.529 92.891 C 197.599 89.441,195.276 89.371,187.064 92.453 C 183.255 93.883,181.657 93.954,175.747 92.957 C 170.512 92.074,167.755 92.076,164.227 92.964 C 161.676 93.607,151.638 94.298,141.920 94.500 L 124.251 94.867 122.650 90.791 L 121.049 86.715 115.274 87.453 C 112.099 87.859,106.912 88.502,103.749 88.882 C 100.586 89.263,97.345 90.232,96.548 91.037 C 94.497 93.108,93.138 120.257,94.975 122.470 C 97.154 125.096,103.665 124.199,117.121 119.419 C 127.727 115.652,130.504 115.012,132.758 115.813 C 135.462 116.773,135.441 116.796,131.278 117.516 C 125.269 118.556,124.542 122.977,129.125 130.612 C 130.704 133.243,130.816 134.246,129.851 137.112 C 128.337 141.607,127.149 143.000,124.828 143.000 C 121.411 143.000,117.312 145.823,115.653 149.318 C 114.764 151.192,113.401 153.252,112.623 153.898 C 111.846 154.543,106.654 155.348,101.086 155.688 C 91.862 156.250,90.922 156.491,90.520 158.402 C 90.277 159.556,89.579 163.200,88.968 166.500 C 88.358 169.800,86.145 176.775,84.052 182.000 C 81.959 187.225,79.913 193.075,79.506 195.000 C 79.098 196.925,77.883 200.300,76.804 202.500 C 75.726 204.700,74.186 208.975,73.383 212.000 C 72.580 215.025,70.590 220.973,68.961 225.218 C 67.333 229.462,65.999 234.187,65.997 235.718 C 65.996 237.248,64.139 243.675,61.871 250.000 C 59.602 256.325,57.126 263.750,56.367 266.500 C 54.247 274.191,51.817 281.393,50.970 282.500 C 50.549 283.050,49.519 285.824,48.682 288.664 C 47.844 291.504,46.500 294.879,45.694 296.164 C 43.204 300.133,37.135 315.250,36.051 320.183 C 35.485 322.759,32.785 331.562,30.053 339.745 C 27.320 347.928,24.779 356.529,24.407 358.859 L 23.729 363.094 21.283 360.797 C 19.937 359.534,17.201 356.357,15.203 353.738 C 11.610 349.028,7.745 347.019,2.250 347.006 C 0.302 347.001,0.000 347.521,0.000 350.883 C 0.000 353.934,0.432 354.880,2.013 355.293 C 6.593 356.491,8.171 366.470,6.790 385.500 L 6.500 389.500 11.000 390.083 C 13.475 390.404,17.412 391.466,19.750 392.442 C 23.521 394.017,24.713 394.075,30.332 392.958 C 36.391 391.754,36.910 391.812,42.365 394.310 C 45.501 395.745,51.717 397.905,56.179 399.109 C 63.386 401.053,65.811 401.228,77.896 400.670 C 85.378 400.325,94.052 399.567,97.172 398.985 C 102.106 398.065,103.601 398.200,108.672 400.021 C 114.289 402.039,116.096 402.107,158.500 401.914 C 205.663 401.698,203.330 401.493,215.000 406.879 C 221.604 409.927,223.553 409.633,226.528 405.137 C 230.047 399.819,244.474 390.211,253.836 386.949 C 257.506 385.671,258.340 384.912,258.584 382.627 L 258.879 379.855 255.690 382.279 C 249.866 386.706,246.318 388.000,240.004 388.000 C 234.836 388.000,233.529 387.620,231.409 385.500 C 230.034 384.125,228.367 382.998,227.705 382.996 C 227.042 382.993,223.204 384.661,219.176 386.703 C 213.605 389.526,210.320 390.512,205.452 390.822 C 196.595 391.386,194.773 390.721,192.087 385.942 C 189.877 382.009,189.605 381.851,186.136 382.491 C 184.136 382.860,181.532 384.062,180.349 385.162 C 177.562 387.754,168.223 388.031,164.560 385.631 C 162.929 384.562,159.903 383.998,155.785 383.993 C 151.195 383.989,148.691 383.451,146.500 382.000 C 142.407 379.289,140.862 379.481,137.437 383.123 C 132.128 388.769,124.267 390.545,117.651 387.595 C 115.918 386.822,112.167 385.946,109.316 385.649 C 106.464 385.353,102.101 384.185,99.620 383.055 C 94.068 380.525,92.211 380.484,89.564 382.831 C 86.653 385.413,77.693 388.000,71.660 388.000 C 65.800 388.000,53.368 383.562,51.686 380.869 C 50.707 379.301,50.508 379.290,49.440 380.751 C 47.517 383.380,37.254 383.648,31.747 381.212 C 29.251 380.108,25.821 378.900,24.126 378.528 C 21.230 377.892,20.943 378.101,19.387 381.991 C 17.240 387.358,16.302 386.042,16.783 378.340 L 17.169 372.181 22.334 374.174 C 25.175 375.271,29.425 377.030,31.777 378.084 C 36.864 380.363,44.839 380.589,47.559 378.532 C 50.177 376.551,51.975 376.640,54.436 378.873 C 55.571 379.902,59.425 381.887,63.000 383.282 C 68.516 385.435,70.257 385.692,74.500 384.979 C 84.926 383.225,92.000 379.318,92.000 375.312 C 92.000 372.234,89.597 372.302,81.750 375.605 C 77.040 377.588,74.477 378.090,71.030 377.705 C 66.937 377.248,65.873 376.514,60.000 370.088 C 52.204 361.558,49.800 360.999,45.259 366.658 L 42.324 370.317 37.537 368.908 C 34.903 368.134,32.582 367.050,32.379 366.500 C 32.175 365.950,33.608 361.000,35.562 355.500 C 37.517 350.000,40.452 341.000,42.085 335.500 C 46.528 320.532,55.916 294.111,58.608 289.000 C 59.911 286.525,62.036 280.900,63.329 276.500 C 64.622 272.100,67.793 261.525,70.377 253.000 C 72.961 244.475,76.231 233.675,77.645 229.000 C 79.059 224.325,81.064 218.250,82.102 215.500 C 87.552 201.051,91.473 190.741,94.041 184.109 C 95.615 180.045,97.194 175.320,97.550 173.609 C 97.905 171.899,98.824 169.509,99.591 168.297 C 101.316 165.571,107.493 164.203,110.264 165.933 C 111.841 166.918,112.067 166.897,111.458 165.824 C 110.936 164.905,111.039 164.806,111.794 165.500 C 112.392 166.050,113.181 170.100,113.547 174.500 C 114.375 184.457,117.526 192.016,121.932 194.619 C 123.668 195.644,125.936 197.921,126.973 199.679 C 128.011 201.437,130.324 203.633,132.114 204.559 C 135.438 206.278,137.605 206.263,154.739 204.402 L 160.977 203.724 165.739 207.995 C 168.357 210.344,177.859 219.519,186.853 228.383 C 203.273 244.566,212.352 254.856,217.000 262.552 C 218.375 264.828,220.400 268.149,221.500 269.930 C 222.600 271.712,225.447 276.547,227.827 280.675 C 231.596 287.212,232.758 288.433,236.827 290.135 C 244.081 293.169,244.079 293.167,246.033 299.511 C 249.069 309.369,252.000 322.342,252.000 325.917 C 252.000 329.554,253.224 337.806,255.679 350.719 C 257.127 358.332,257.116 359.254,255.537 363.219 C 254.599 365.574,253.082 368.336,252.166 369.358 C 250.012 371.760,241.193 376.237,240.030 375.519 C 239.538 375.215,238.581 372.489,237.904 369.461 C 236.152 361.633,234.055 361.352,225.974 367.864 C 219.054 373.440,207.295 380.000,204.220 380.000 C 203.074 380.000,202.012 379.154,201.710 378.000 C 201.359 376.657,200.346 376.000,198.629 376.000 C 195.809 376.000,194.000 378.453,194.000 382.279 C 194.000 390.907,210.141 389.796,224.375 380.189 L 228.615 377.328 231.278 381.033 C 232.954 383.364,235.040 384.958,236.902 385.330 C 241.289 386.208,249.220 383.786,253.777 380.177 C 255.983 378.430,258.141 377.000,258.573 377.000 C 259.005 377.000,260.801 378.575,262.564 380.500 C 264.723 382.857,266.705 384.028,268.635 384.085 C 270.548 384.142,268.304 385.245,261.886 387.402 C 245.476 392.920,228.821 403.466,225.120 410.684 C 223.900 413.064,223.644 417.909,224.607 420.418 C 225.849 423.656,255.373 421.860,270.112 417.650 C 275.792 416.028,296.694 411.588,306.000 410.027 C 309.025 409.519,316.450 408.149,322.500 406.982 C 337.337 404.119,351.360 402.111,364.000 401.040 C 379.514 399.725,396.280 397.945,396.930 397.544 C 398.855 396.359,429.090 392.205,456.000 389.428 C 459.025 389.116,464.425 388.245,468.000 387.492 C 471.575 386.739,478.325 385.601,483.000 384.963 C 493.315 383.557,506.646 380.164,509.853 378.129 C 512.010 376.759,512.172 376.091,511.808 370.068 C 511.590 366.456,510.756 362.167,509.956 360.537 C 508.187 356.937,503.248 353.479,497.088 351.528 C 485.799 347.951,476.457 344.121,474.272 342.175 C 472.293 340.412,471.997 339.432,472.495 336.280 C 472.823 334.201,473.526 329.800,474.055 326.500 C 475.007 320.573,476.432 304.494,477.649 285.978 C 478.387 274.744,476.499 266.186,472.757 263.800 C 468.445 261.051,454.462 256.138,447.918 255.072 C 444.298 254.482,436.965 254.000,431.623 254.000 C 422.806 254.000,421.696 253.787,419.597 251.688 C 418.326 250.417,416.486 246.930,415.507 243.938 C 412.919 236.022,411.493 233.491,403.997 223.500 C 393.173 209.074,387.009 197.264,385.836 188.706 C 384.065 175.785,381.604 173.054,374.797 176.453 C 371.542 178.079,369.524 178.680,357.239 181.684 C 351.525 183.081,350.760 183.073,348.489 181.585 C 345.167 179.408,345.281 176.356,349.076 165.941 C 353.077 154.959,356.672 148.701,365.988 136.500 C 375.456 124.101,379.171 118.014,381.440 111.181 C 385.649 98.509,379.255 88.034,367.282 87.984 C 365.202 87.976,359.269 87.076,354.098 85.984 C 347.890 84.674,340.841 84.000,333.348 84.000 C 327.107 84.000,322.000 83.709,322.000 83.354 C 322.000 81.074,331.521 68.486,346.086 51.508 C 357.827 37.823,361.693 32.204,364.017 25.450 C 367.241 16.081,366.192 3.244,362.022 1.012 C 359.101 -0.551,342.809 -0.248,339.404 1.434 C 334.002 4.100,320.548 7.111,311.428 7.693 C 300.724 8.377,295.903 7.141,292.776 2.910 C 290.869 0.332,290.018 0.000,285.312 0.000 C 280.128 0.000,280.000 0.069,280.000 2.874 M354.418 10.607 C 358.345 12.114,355.306 22.618,348.192 32.124 C 342.315 39.976,329.467 55.849,324.008 62.000 C 322.300 63.925,318.674 68.800,315.951 72.834 C 309.542 82.327,309.218 86.539,314.583 90.631 C 318.007 93.243,318.859 93.397,333.833 94.113 C 342.450 94.524,350.850 95.305,352.500 95.848 C 354.150 96.391,358.135 97.106,361.355 97.438 C 364.575 97.770,368.088 98.512,369.162 99.086 C 371.894 100.549,372.914 103.940,371.691 107.495 C 370.412 111.210,361.025 125.931,356.065 132.000 C 349.663 139.835,346.307 145.752,341.608 157.496 C 334.427 175.439,334.295 181.072,340.892 188.007 C 344.375 191.669,345.123 192.000,349.907 192.000 C 352.777 192.000,359.406 191.017,364.638 189.814 C 375.671 187.280,374.694 186.697,378.515 198.095 C 381.666 207.495,388.947 220.328,397.459 231.483 C 405.402 241.894,406.468 243.918,408.587 252.611 C 409.510 256.400,410.896 260.175,411.667 261.000 C 412.699 262.104,416.294 262.652,425.284 263.076 C 439.711 263.757,451.170 266.097,459.625 270.090 C 468.683 274.368,469.803 278.305,467.278 297.000 C 466.646 301.675,465.856 308.650,465.521 312.500 C 465.186 316.350,464.435 322.029,463.852 325.119 C 463.268 328.210,462.951 334.873,463.146 339.927 C 463.576 351.090,463.829 351.357,478.459 356.036 C 489.702 359.631,495.424 362.240,498.750 365.287 C 501.539 367.842,501.585 369.154,498.944 370.803 C 496.591 372.272,479.996 375.952,475.500 376.002 C 473.850 376.020,469.350 376.727,465.500 377.573 C 461.650 378.419,452.875 379.956,446.000 380.990 C 439.125 382.024,429.675 383.536,425.000 384.352 C 420.325 385.167,413.575 386.120,410.000 386.471 C 406.425 386.821,396.750 388.189,388.500 389.511 C 380.250 390.832,365.976 392.389,356.781 392.970 C 347.585 393.551,338.830 394.494,337.326 395.066 C 335.821 395.638,330.070 396.758,324.545 397.555 C 310.707 399.550,301.842 401.226,285.500 404.940 C 266.487 409.260,263.207 409.878,250.500 411.534 C 244.450 412.323,238.375 413.266,237.000 413.630 L 234.500 414.291 237.000 412.280 C 244.614 406.153,257.686 399.567,270.500 395.402 C 274.350 394.150,281.325 391.573,286.000 389.675 C 293.129 386.781,311.616 381.847,328.500 378.333 C 332.120 377.579,332.531 377.178,332.824 374.105 C 333.019 372.063,332.621 370.375,331.824 369.870 C 329.139 368.168,319.146 369.024,310.362 371.709 C 302.428 374.134,299.908 374.422,286.301 374.459 C 277.439 374.483,270.688 374.083,270.110 373.500 C 268.440 371.818,266.483 363.113,267.544 362.088 C 268.615 361.052,284.637 359.110,298.865 358.291 L 308.229 357.751 311.999 361.876 C 319.632 370.226,327.892 365.033,322.039 355.564 C 317.484 348.193,316.087 315.679,319.250 290.655 C 320.212 283.040,321.007 271.565,321.015 265.155 C 321.024 258.745,321.391 252.933,321.831 252.239 C 322.271 251.546,326.427 250.488,331.066 249.887 C 341.311 248.562,342.410 248.061,342.828 244.527 C 343.302 240.524,341.859 239.675,334.931 239.883 C 321.570 240.284,298.380 248.041,285.500 256.419 C 273.433 264.267,274.038 263.845,266.954 269.350 C 258.633 275.818,246.734 282.000,242.607 282.000 C 238.863 282.000,237.235 280.493,233.969 274.000 C 229.863 265.836,218.710 248.619,212.917 241.500 C 207.843 235.264,196.744 224.127,186.949 215.442 C 185.052 213.760,179.573 208.248,174.773 203.192 C 165.284 193.198,165.249 193.184,156.000 195.373 C 149.722 196.859,137.600 197.489,135.869 196.419 C 135.216 196.015,138.164 194.557,142.604 193.087 C 150.119 190.598,150.500 190.328,150.500 187.486 C 150.500 184.912,150.086 184.452,147.500 184.152 C 145.850 183.960,141.015 184.596,136.754 185.564 C 126.967 187.789,124.878 187.026,122.620 180.398 C 120.836 175.162,120.420 162.477,122.000 161.500 C 122.613 161.121,123.002 162.741,123.006 165.691 C 123.014 172.993,124.665 177.625,128.141 180.101 C 130.957 182.106,131.997 182.236,140.633 181.669 C 148.689 181.140,150.797 181.343,155.192 183.076 C 158.018 184.190,161.493 184.966,162.915 184.800 C 165.042 184.553,165.500 183.978,165.500 181.556 C 165.500 179.250,164.742 178.167,162.000 176.556 C 159.059 174.828,156.702 174.486,147.240 174.415 C 136.874 174.337,135.783 174.145,133.490 171.991 C 129.924 168.640,130.269 164.820,135.500 149.785 C 140.419 135.646,140.707 133.628,138.548 128.461 L 137.096 124.986 139.798 125.613 C 141.284 125.958,143.102 126.973,143.837 127.870 C 145.884 130.365,144.525 139.887,141.017 147.623 C 136.947 156.598,137.005 160.423,141.250 163.011 C 145.184 165.410,161.904 171.049,164.000 170.684 C 167.062 170.150,168.735 168.380,170.432 163.878 C 172.395 158.670,172.186 148.430,169.973 141.440 C 169.236 139.110,168.993 136.165,169.403 134.531 C 170.409 130.520,176.200 125.000,179.400 125.000 C 182.448 125.000,182.487 125.157,180.435 129.125 C 176.492 136.751,176.852 151.251,181.188 159.500 C 189.391 175.102,189.078 174.228,188.447 179.782 C 187.939 184.265,188.224 185.704,190.333 189.282 C 192.888 193.619,203.016 203.711,220.655 219.500 C 230.794 228.574,244.085 237.000,248.261 237.000 C 250.822 237.000,254.981 234.212,287.607 210.624 C 298.129 203.016,312.696 195.000,315.997 195.000 C 320.330 195.000,321.726 187.607,317.684 186.070 C 315.294 185.161,308.627 186.041,303.720 187.913 C 301.179 188.882,300.855 188.738,299.953 186.237 C 295.534 173.984,290.389 165.646,282.684 158.250 C 279.103 154.813,275.572 151.980,274.837 151.955 C 272.484 151.877,288.398 147.027,291.054 147.013 C 294.923 146.993,302.842 141.610,309.127 134.728 C 314.497 128.848,314.876 128.622,317.424 129.783 C 327.865 134.541,330.910 125.844,320.820 120.082 C 314.758 116.620,306.719 115.159,304.386 117.095 C 303.223 118.060,302.988 119.432,303.452 122.531 C 304.045 126.486,303.861 126.873,299.462 130.928 C 293.997 135.966,286.479 139.610,278.511 141.083 C 275.334 141.670,271.557 142.601,270.117 143.152 C 260.362 146.883,243.850 150.163,234.000 150.326 C 224.050 150.491,216.000 149.035,216.000 147.071 C 216.000 146.645,219.037 145.490,222.750 144.504 C 231.608 142.152,233.774 140.987,238.200 136.199 C 246.220 127.521,251.262 117.447,252.445 107.736 C 253.121 102.185,255.000 100.569,255.000 105.539 C 255.000 109.670,257.964 115.662,260.601 116.864 C 265.929 119.292,284.596 117.751,291.293 114.330 C 295.238 112.316,296.873 108.444,294.697 106.269 C 293.252 104.823,292.432 104.767,288.270 105.832 C 283.543 107.042,277.457 106.548,276.420 104.871 C 276.124 104.392,277.451 104.000,279.370 104.000 C 284.351 104.000,286.358 101.638,285.568 96.703 C 284.444 89.668,283.675 88.999,276.715 89.006 C 267.872 89.014,258.946 90.664,256.015 92.832 L 253.500 94.691 253.870 90.099 C 254.169 86.394,255.414 83.863,260.312 77.003 C 263.651 72.326,267.174 67.596,268.140 66.491 C 271.499 62.648,281.372 36.450,285.981 19.152 C 287.001 15.324,287.400 14.886,289.320 15.499 C 303.983 20.182,312.354 19.999,333.000 14.543 C 350.518 9.914,351.934 9.654,354.418 10.607 M334.000 17.529 C 316.466 22.120,309.474 22.792,298.231 20.968 C 291.672 19.903,288.000 20.770,288.000 23.382 C 288.000 25.383,278.568 52.750,275.676 59.138 C 274.273 62.239,270.469 68.314,267.223 72.638 C 260.293 81.869,258.682 84.677,259.529 86.047 C 259.925 86.688,263.894 86.811,270.452 86.387 C 276.118 86.021,281.857 85.998,283.205 86.337 C 285.860 87.003,287.492 89.773,288.549 95.411 C 288.938 97.483,289.809 99.000,290.611 99.000 C 291.375 99.000,291.887 99.536,291.750 100.191 C 291.612 100.845,292.400 101.567,293.500 101.794 C 296.807 102.476,299.000 105.123,299.000 108.432 C 299.000 112.877,296.853 115.384,290.792 118.015 C 286.300 119.966,283.685 120.327,273.500 120.407 C 266.900 120.458,259.663 120.117,257.417 119.649 L 253.334 118.798 250.616 124.353 C 246.884 131.980,237.497 142.397,232.332 144.644 C 230.040 145.641,228.395 146.831,228.678 147.289 C 229.537 148.678,244.993 146.946,253.500 144.507 C 260.516 142.496,269.122 140.210,282.299 136.857 C 287.078 135.641,295.951 130.521,298.228 127.667 C 299.305 126.316,299.964 123.721,299.978 120.773 C 299.996 116.833,300.421 115.770,302.529 114.389 C 307.505 111.129,320.538 114.507,327.250 120.797 C 329.403 122.814,330.000 124.285,330.000 127.565 C 330.000 133.316,328.396 134.404,320.917 133.726 L 314.871 133.178 308.666 139.444 C 301.736 146.442,297.838 148.800,290.500 150.429 C 283.503 151.983,283.403 154.215,290.006 161.506 C 292.824 164.619,296.734 170.496,298.693 174.566 C 300.652 178.636,302.803 182.422,303.473 182.978 C 304.295 183.660,306.512 183.653,310.284 182.955 C 317.753 181.574,322.942 183.493,323.115 187.699 C 323.415 194.986,322.670 196.187,316.762 197.942 C 311.288 199.568,297.207 207.057,289.500 212.442 C 281.634 217.937,261.680 232.403,256.106 236.651 C 250.872 240.640,245.041 241.161,241.000 238.000 C 239.625 236.924,238.110 236.034,237.632 236.022 C 236.305 235.988,223.180 225.766,217.000 219.954 C 213.975 217.109,209.928 213.593,208.006 212.141 C 202.046 207.635,188.967 193.699,186.815 189.561 C 185.224 186.502,184.896 184.524,185.348 180.708 C 185.932 175.776,184.113 170.635,179.108 163.070 C 178.223 161.734,176.985 159.034,176.355 157.070 L 175.210 153.500 175.105 157.213 C 174.993 161.191,171.691 170.533,169.525 173.000 C 168.631 174.019,168.376 176.180,168.731 179.745 C 169.420 186.664,168.249 188.000,161.494 188.000 C 157.097 188.000,156.148 188.324,155.717 189.974 C 155.233 191.823,155.575 191.909,161.097 191.332 L 166.993 190.716 176.243 200.608 C 181.331 206.049,186.998 211.850,188.838 213.500 C 212.557 234.779,222.310 246.747,237.174 272.811 C 238.644 275.390,240.495 277.909,241.287 278.408 C 243.817 280.006,258.959 271.873,271.725 262.060 C 282.222 253.992,294.940 246.793,303.594 244.021 C 318.049 239.390,326.842 237.279,334.695 236.554 C 341.128 235.960,342.107 236.107,343.945 237.945 C 345.388 239.388,346.000 241.294,346.000 244.345 C 346.000 250.094,343.873 251.995,337.421 252.015 C 334.715 252.024,330.668 252.586,328.429 253.265 L 324.358 254.500 324.126 266.000 C 323.999 272.325,323.131 283.800,322.197 291.500 C 319.153 316.608,320.574 348.092,325.028 354.210 C 326.112 355.700,327.000 358.045,327.000 359.421 C 327.000 361.705,330.340 366.000,332.117 366.000 C 332.524 366.000,333.564 366.707,334.429 367.571 C 336.052 369.195,336.591 376.569,335.235 378.600 C 334.026 380.411,330.317 382.000,327.300 382.000 C 322.203 382.000,296.752 388.847,285.000 393.379 C 278.675 395.818,269.144 399.460,263.820 401.471 C 254.213 405.100,249.685 408.000,253.628 408.000 C 256.154 408.000,267.248 405.844,286.500 401.612 C 302.817 398.026,315.556 395.642,324.500 394.500 C 327.250 394.150,331.975 393.236,335.000 392.471 C 338.025 391.706,347.925 390.589,357.000 389.990 C 366.075 389.391,380.250 387.822,388.500 386.504 C 396.750 385.186,406.425 383.834,410.000 383.498 C 413.575 383.163,421.000 382.047,426.500 381.018 C 432.000 379.989,440.775 378.611,446.000 377.956 C 451.225 377.301,457.941 376.107,460.925 375.304 C 463.909 374.500,470.434 373.423,475.425 372.911 C 485.040 371.925,495.000 369.490,495.000 368.127 C 495.000 365.761,488.720 362.680,475.099 358.364 C 470.218 356.817,465.400 354.542,463.599 352.934 C 460.596 350.252,460.489 349.864,460.149 340.438 C 459.955 335.087,460.288 328.187,460.887 325.105 C 461.487 322.022,462.240 316.350,462.560 312.500 C 463.150 305.417,464.649 292.473,465.638 285.930 C 466.458 280.501,463.924 275.512,459.095 273.048 C 452.024 269.441,439.279 266.834,425.321 266.138 C 409.949 265.372,407.710 264.219,406.548 256.471 C 405.656 250.524,399.022 237.438,393.400 230.537 C 385.400 220.715,378.548 208.799,375.625 199.621 C 373.298 192.318,372.563 191.004,371.065 191.479 C 365.762 193.163,354.782 194.967,349.753 194.983 C 344.526 194.998,343.638 194.667,339.938 191.325 C 337.701 189.304,335.170 186.296,334.314 184.641 C 329.861 176.030,338.042 151.350,351.218 133.640 C 359.515 122.488,369.000 106.999,369.000 104.601 C 369.000 102.441,366.138 101.162,358.829 100.057 C 355.348 99.530,349.800 98.630,346.500 98.056 C 343.200 97.481,335.755 97.009,329.956 97.006 C 319.845 97.000,319.187 96.866,313.956 93.745 L 308.500 90.490 308.217 84.995 C 307.949 79.785,308.209 79.110,313.217 71.993 C 318.002 65.193,322.830 59.137,341.529 36.481 C 344.845 32.463,348.541 27.207,349.743 24.800 C 352.326 19.628,353.429 12.949,351.675 13.104 C 351.029 13.162,343.075 15.153,334.000 17.529 M245.704 92.671 C 246.057 93.591,245.894 98.511,245.341 103.606 C 244.515 111.227,243.855 113.502,241.618 116.435 C 238.632 120.350,237.263 120.849,236.313 118.372 C 235.928 117.370,236.472 116.121,237.727 115.122 C 242.096 111.646,243.404 104.449,240.436 100.212 C 238.866 97.971,239.186 94.824,241.245 92.250 C 242.658 90.483,244.947 90.699,245.704 92.671 M274.127 97.635 C 272.272 98.444,269.122 98.956,267.127 98.772 L 263.500 98.438 267.000 97.309 C 268.925 96.688,272.075 96.177,274.000 96.172 L 277.500 96.163 274.127 97.635 M113.787 101.442 C 114.495 103.611,114.804 106.618,114.473 108.125 C 113.966 110.433,112.914 111.175,107.799 112.832 L 101.727 114.798 102.303 107.180 C 102.948 98.648,104.353 96.701,109.500 97.206 C 112.011 97.452,112.710 98.143,113.787 101.442 M197.000 101.984 C 197.868 102.067,197.446 102.573,196.000 103.185 C 194.625 103.767,184.952 104.414,174.504 104.624 C 164.057 104.834,150.782 105.454,145.004 106.002 C 131.605 107.273,121.000 107.280,121.000 106.019 C 121.000 105.480,122.013 104.827,123.250 104.569 C 125.222 104.157,148.294 102.346,159.500 101.723 C 163.493 101.500,194.159 101.714,197.000 101.984 M189.800 113.200 C 190.460 113.860,191.000 115.226,191.000 116.235 C 191.000 117.847,190.727 117.916,188.750 116.802 C 187.259 115.962,182.991 115.601,176.099 115.732 C 165.309 115.938,159.785 114.768,165.514 113.491 C 167.156 113.125,168.950 112.675,169.500 112.491 C 172.338 111.545,188.716 112.116,189.800 113.200 M214.000 116.500 C 216.713 117.875,220.323 119.000,222.022 119.000 C 224.793 119.000,225.369 119.564,227.623 124.487 C 229.004 127.504,229.861 130.417,229.526 130.958 C 228.745 132.221,220.990 135.656,215.708 137.079 C 210.034 138.607,204.996 143.823,205.015 148.150 C 205.034 152.278,205.537 153.020,210.250 155.884 C 214.129 158.242,215.254 159.695,212.331 158.573 C 211.412 158.221,207.250 157.476,203.081 156.918 C 191.793 155.407,189.337 154.406,188.080 150.800 C 186.313 145.732,186.826 141.341,190.000 134.340 C 191.650 130.701,193.000 126.471,193.000 124.939 C 193.000 122.670,193.617 121.951,196.335 121.054 C 198.169 120.449,200.954 118.614,202.522 116.977 C 205.995 113.352,207.652 113.283,214.000 116.500 M151.548 115.923 C 150.620 117.424,145.122 118.247,141.172 117.477 C 138.052 116.869,137.801 116.639,139.500 115.951 C 142.303 114.815,152.246 114.792,151.548 115.923 M173.064 133.846 C 172.415 135.412,172.186 137.891,172.553 139.356 C 173.792 144.293,175.000 143.160,175.000 137.059 C 175.000 133.727,174.830 131.000,174.621 131.000 C 174.413 131.000,173.712 132.281,173.064 133.846 M266.723 160.094 C 279.657 168.675,282.514 172.030,288.549 185.723 L 291.977 193.500 288.738 196.335 C 286.957 197.894,283.250 200.718,280.500 202.611 C 277.750 204.503,272.350 208.534,268.500 211.568 C 258.390 219.536,250.486 224.840,247.670 225.547 C 244.851 226.254,240.530 224.293,237.311 220.845 C 234.969 218.337,228.004 194.912,227.994 189.510 C 227.991 187.854,227.538 184.876,226.986 182.891 C 226.435 180.906,225.640 175.005,225.219 169.777 L 224.454 160.271 236.477 159.676 C 243.090 159.349,250.750 158.465,253.500 157.713 C 259.438 156.087,261.146 156.395,266.723 160.094 M134.000 165.845 C 134.000 168.640,137.252 171.002,141.079 170.985 C 147.221 170.957,147.343 169.585,141.462 166.701 C 134.949 163.506,134.000 163.397,134.000 165.845 M214.633 168.336 C 215.255 168.976,216.529 175.125,217.462 182.000 C 218.395 188.875,220.023 197.360,221.079 200.855 C 223.536 208.984,223.585 211.408,221.222 207.823 C 220.251 206.351,218.116 204.141,216.478 202.912 C 211.293 199.022,201.903 189.603,200.435 186.821 C 199.647 185.327,199.266 182.893,199.574 181.321 C 199.882 179.747,199.245 175.687,198.133 172.138 L 196.140 165.775 204.820 166.473 C 209.594 166.857,214.010 167.695,214.633 168.336 M312.161 258.453 C 312.992 260.277,312.966 263.166,312.060 269.703 C 311.391 274.542,310.431 282.775,309.928 288.000 C 309.425 293.225,308.523 300.517,307.924 304.203 C 307.124 309.127,307.151 315.437,308.027 327.969 C 308.892 340.361,308.918 345.394,308.122 346.354 C 306.791 347.957,297.128 349.744,283.000 350.999 C 264.298 352.662,264.522 352.763,263.001 342.000 C 260.910 327.193,258.763 315.332,256.395 305.500 C 253.390 293.025,253.369 290.546,256.250 288.479 C 260.892 285.148,283.692 269.924,288.500 266.944 C 307.711 255.038,310.198 254.146,312.161 258.453 M144.625 347.518 C 143.731 348.412,143.000 350.026,143.000 351.105 C 143.000 356.749,129.957 375.990,124.743 378.036 C 120.346 379.762,118.808 381.772,120.074 384.138 C 121.302 386.433,126.853 386.645,130.901 384.551 C 134.238 382.826,139.769 376.737,141.042 373.389 C 142.278 370.139,143.706 370.386,144.497 373.988 C 145.568 378.860,149.264 381.000,156.611 381.000 C 161.188 381.000,163.863 381.555,166.226 382.996 C 172.602 386.884,182.193 384.335,180.560 379.188 C 180.153 377.907,179.044 377.000,177.883 377.000 C 174.771 377.000,170.751 374.459,167.707 370.569 C 164.676 366.695,161.683 366.016,158.441 368.468 C 157.374 369.276,155.768 369.951,154.872 369.968 C 151.479 370.035,150.500 367.039,150.500 356.589 C 150.500 347.063,150.381 346.483,148.375 346.197 C 147.206 346.030,145.518 346.625,144.625 347.518 M287.000 362.188 C 283.425 362.689,278.635 363.322,276.355 363.595 C 272.138 364.100,270.973 365.527,271.765 369.217 C 272.284 371.635,277.183 372.321,290.329 371.818 C 298.759 371.495,302.502 370.908,305.461 369.445 C 310.224 367.088,310.764 365.764,308.063 363.063 C 305.758 360.758,299.169 360.485,287.000 362.188 M93.571 363.571 C 92.707 364.436,92.000 366.245,92.000 367.593 C 92.000 370.940,96.558 377.564,100.565 380.040 C 104.553 382.505,113.391 383.794,114.459 382.066 C 115.717 380.030,114.122 376.000,112.058 376.000 C 109.113 376.000,104.265 371.339,102.922 367.217 C 102.255 365.173,101.213 363.169,100.605 362.765 C 98.731 361.519,95.221 361.921,93.571 363.571 " stroke="none" fill="undefined" fill-rule="evenodd"/></svg>