<svg id="svg" version="1.1" width="512" height="422" xmlns="http://www.w3.org/2000/svg"><path d="M280.000 2.874 C 280.000 4.455,279.302 7.718,278.450 10.124 C 277.597 12.531,275.748 19.225,274.341 25.000 C 272.934 30.775,270.987 36.850,270.015 38.500 C 269.043 40.150,267.230 44.650,265.987 48.500 C 263.573 55.972,254.636 70.572,249.570 75.317 C 247.882 76.899,244.700 79.000,242.500 79.987 C 235.646 83.061,231.640 87.891,228.853 96.445 C 227.561 100.407,227.150 100.959,226.950 99.000 C 226.517 94.749,226.469 94.535,225.665 93.250 C 224.512 91.409,220.914 91.739,217.500 94.000 C 215.577 95.274,212.807 95.989,209.785 95.993 C 205.930 95.999,204.424 95.433,201.529 92.891 C 197.599 89.441,195.276 89.371,187.064 92.453 C 183.255 93.883,181.657 93.954,175.747 92.957 C 170.512 92.074,167.755 92.076,164.227 92.964 C 161.676 93.607,151.638 94.298,141.920 94.500 L 124.251 94.867 122.650 90.791 L 121.049 86.715 115.274 87.453 C 112.099 87.859,106.912 88.502,103.749 88.882 C 100.586 89.263,97.345 90.232,96.548 91.037 C 94.497 93.108,93.138 120.257,94.975 122.470 C 97.154 125.096,103.665 124.199,117.121 119.419 C 127.727 115.652,130.504 115.012,132.758 115.813 C 135.462 116.773,135.441 116.796,131.278 117.516 C 125.269 118.556,124.542 122.977,129.125 130.612 C 130.704 133.243,130.816 134.246,129.851 137.112 C 128.337 141.607,127.149 143.000,124.828 143.000 C 121.411 143.000,117.312 145.823,115.653 149.318 C 114.764 151.192,113.401 153.252,112.623 153.898 C 111.846 154.543,106.654 155.348,101.086 155.688 C 91.862 156.250,90.922 156.491,90.520 158.402 C 90.277 159.556,89.579 163.200,88.968 166.500 C 88.358 169.800,86.145 176.775,84.052 182.000 C 81.959 187.225,79.913 193.075,79.506 195.000 C 79.098 196.925,77.883 200.300,76.804 202.500 C 75.726 204.700,74.186 208.975,73.383 212.000 C 72.580 215.025,70.590 220.973,68.961 225.218 C 67.333 229.462,65.999 234.187,65.997 235.718 C 65.996 237.248,64.139 243.675,61.871 250.000 C 59.602 256.325,57.126 263.750,56.367 266.500 C 54.247 274.191,51.817 281.393,50.970 282.500 C 50.549 283.050,49.519 285.824,48.682 288.664 C 47.844 291.504,46.500 294.879,45.694 296.164 C 43.204 300.133,37.135 315.250,36.051 320.183 C 35.485 322.759,32.785 331.562,30.053 339.745 C 27.320 347.928,24.779 356.529,24.407 358.859 L 23.729 363.094 21.283 360.797 C 19.937 359.534,17.201 356.357,15.203 353.738 C 11.610 349.028,7.745 347.019,2.250 347.006 C 0.302 347.001,0.000 347.521,0.000 350.883 C 0.000 353.934,0.432 354.880,2.013 355.293 C 6.593 356.491,8.171 366.470,6.790 385.500 L 6.500 389.500 11.500 390.044 C 14.250 390.344,18.048 391.412,19.941 392.419 C 23.047 394.071,24.030 394.126,30.056 392.989 C 36.467 391.780,36.954 391.833,42.398 394.325 C 45.516 395.752,51.715 397.904,56.175 399.108 C 63.321 401.036,65.856 401.225,77.528 400.697 C 84.812 400.368,93.655 399.596,97.179 398.982 C 102.957 397.976,104.124 398.079,109.044 400.027 C 114.388 402.144,115.399 402.182,158.500 401.889 L 202.500 401.589 211.465 405.295 C 216.396 407.333,220.994 409.000,221.684 409.000 C 222.373 409.000,224.684 406.637,226.820 403.750 C 229.917 399.563,232.658 397.422,240.352 393.178 C 249.967 387.874,252.305 386.173,247.435 388.025 C 241.506 390.279,230.878 388.510,228.974 384.951 C 228.052 383.229,227.536 383.343,220.745 386.774 C 214.311 390.024,212.486 390.476,204.447 390.807 C 194.819 391.203,194.135 390.930,191.516 385.643 C 189.874 382.328,184.510 382.217,181.296 385.432 C 179.170 387.557,177.793 388.000,173.314 388.000 C 170.214 388.000,166.533 387.289,164.700 386.336 C 162.940 385.421,158.575 384.471,155.000 384.225 C 151.425 383.980,147.801 383.410,146.946 382.959 C 146.091 382.508,144.804 382.503,144.085 382.947 C 143.367 383.391,141.907 383.527,140.841 383.248 C 139.715 382.954,137.982 383.580,136.702 384.746 C 135.491 385.848,133.517 387.256,132.316 387.875 C 129.397 389.378,118.716 389.316,117.187 387.787 C 116.520 387.120,114.968 386.516,113.737 386.444 C 106.916 386.048,99.994 384.710,98.362 383.474 C 95.760 381.503,93.549 381.663,88.698 384.171 C 86.389 385.365,83.707 386.723,82.737 387.188 C 79.616 388.684,69.606 389.265,66.000 388.158 C 57.304 385.490,51.522 382.986,51.764 381.994 C 51.951 381.232,51.455 381.221,50.080 381.957 C 47.034 383.587,33.973 383.234,30.509 381.428 C 26.189 379.175,21.408 380.309,19.477 384.045 C 16.830 389.163,15.876 387.577,16.181 378.568 C 16.338 373.931,16.735 370.570,17.062 371.101 C 18.196 372.935,37.013 380.000,40.754 379.996 C 42.815 379.994,46.017 379.067,47.872 377.937 C 51.232 375.888,51.252 375.888,53.372 377.857 C 57.026 381.250,66.851 385.000,72.087 385.000 C 80.067 385.000,91.902 379.475,91.969 375.719 C 92.020 372.818,89.704 372.752,82.533 375.451 C 78.809 376.853,73.903 378.001,71.631 378.003 C 67.785 378.006,67.012 377.490,60.416 370.503 C 51.988 361.578,49.779 361.025,45.224 366.702 L 42.254 370.404 37.877 369.028 C 35.470 368.271,33.094 367.302,32.598 366.874 C 32.082 366.429,33.849 359.766,36.729 351.298 C 39.497 343.159,44.793 327.275,48.497 316.000 C 52.202 304.725,56.529 293.025,58.115 290.000 C 59.700 286.975,61.607 282.250,62.354 279.500 C 63.101 276.750,66.051 266.850,68.911 257.500 C 71.771 248.150,75.473 236.000,77.139 230.500 C 80.530 219.306,85.004 206.839,91.493 190.500 C 93.896 184.450,96.589 176.950,97.478 173.834 C 98.366 170.717,99.803 167.579,100.670 166.859 C 101.537 166.139,104.779 165.312,107.874 165.021 L 113.500 164.492 113.776 173.496 C 114.100 184.089,117.200 192.018,121.985 194.492 C 123.537 195.295,125.740 197.461,126.880 199.306 C 128.020 201.150,130.518 203.503,132.431 204.533 C 135.637 206.259,136.676 206.311,145.705 205.193 C 162.046 203.170,159.850 202.259,176.084 217.800 C 199.702 240.409,212.441 254.364,216.898 262.510 C 218.098 264.705,220.075 267.941,221.290 269.703 C 222.506 271.464,225.483 276.358,227.906 280.578 C 231.743 287.258,232.907 288.499,236.906 290.170 C 239.433 291.226,242.105 292.411,242.844 292.805 C 245.032 293.971,252.000 318.858,252.000 325.505 C 252.000 329.517,253.154 337.431,255.666 350.658 C 257.368 359.615,256.752 363.503,252.844 368.471 C 250.623 371.295,241.442 376.391,240.086 375.553 C 239.624 375.267,238.707 372.895,238.049 370.280 C 235.857 361.576,234.010 361.086,226.883 367.321 C 220.835 372.612,207.860 380.000,204.616 380.000 C 203.074 380.000,202.049 379.294,201.710 378.000 C 201.359 376.657,200.346 376.000,198.629 376.000 C 194.086 376.000,192.403 382.403,196.000 386.000 C 200.432 390.432,214.418 387.231,225.250 379.305 C 228.615 376.843,230.000 376.270,230.000 377.338 C 230.000 378.168,231.205 380.278,232.677 382.028 C 235.242 385.076,235.614 385.194,241.511 384.818 C 246.680 384.489,248.497 383.831,252.836 380.713 C 255.679 378.671,258.566 377.003,259.252 377.006 C 259.939 377.010,261.261 378.350,262.191 379.985 C 263.487 382.262,264.840 383.111,267.975 383.612 C 270.226 383.972,271.903 384.431,271.702 384.632 C 271.501 384.832,267.081 386.274,261.880 387.836 C 246.619 392.418,229.048 403.140,225.474 410.051 C 223.945 413.007,223.555 417.676,224.607 420.418 C 225.849 423.656,255.373 421.860,270.112 417.650 C 275.792 416.028,296.694 411.588,306.000 410.027 C 309.025 409.519,316.450 408.149,322.500 406.982 C 337.337 404.119,351.360 402.111,364.000 401.040 C 379.514 399.725,396.280 397.945,396.930 397.544 C 398.855 396.359,429.090 392.205,456.000 389.428 C 459.025 389.116,464.425 388.245,468.000 387.492 C 471.575 386.739,478.325 385.601,483.000 384.963 C 493.315 383.557,506.646 380.164,509.853 378.129 C 512.010 376.759,512.172 376.091,511.808 370.068 C 511.590 366.456,510.756 362.167,509.956 360.537 C 508.187 356.937,503.248 353.479,497.088 351.528 C 485.799 347.951,476.457 344.121,474.272 342.175 C 472.293 340.412,471.997 339.432,472.495 336.280 C 472.823 334.201,473.526 329.800,474.055 326.500 C 475.007 320.573,476.432 304.494,477.649 285.978 C 478.387 274.744,476.499 266.186,472.757 263.800 C 468.445 261.051,454.462 256.138,447.918 255.072 C 444.298 254.482,436.965 254.000,431.623 254.000 C 422.806 254.000,421.696 253.787,419.597 251.688 C 418.326 250.417,416.486 246.930,415.507 243.938 C 412.919 236.022,411.493 233.491,403.997 223.500 C 393.173 209.074,387.009 197.264,385.836 188.706 C 384.065 175.785,381.604 173.054,374.797 176.453 C 371.542 178.079,369.524 178.680,357.239 181.684 C 351.525 183.081,350.760 183.073,348.489 181.585 C 345.167 179.408,345.281 176.356,349.076 165.941 C 353.077 154.959,356.672 148.701,365.988 136.500 C 375.456 124.101,379.171 118.014,381.440 111.181 C 385.649 98.509,379.255 88.034,367.282 87.984 C 365.202 87.976,359.269 87.076,354.098 85.984 C 347.890 84.674,340.841 84.000,333.348 84.000 C 327.107 84.000,322.000 83.709,322.000 83.354 C 322.000 81.074,331.521 68.486,346.086 51.508 C 357.827 37.823,361.693 32.204,364.017 25.450 C 367.241 16.081,366.192 3.244,362.022 1.012 C 359.101 -0.551,342.809 -0.248,339.404 1.434 C 334.002 4.100,320.548 7.111,311.428 7.693 C 300.724 8.377,295.903 7.141,292.776 2.910 C 290.869 0.332,290.018 0.000,285.312 0.000 C 280.128 0.000,280.000 0.069,280.000 2.874 M355.816 13.792 C 356.359 19.438,353.312 26.167,346.239 34.942 C 342.533 39.540,338.375 44.754,337.000 46.528 C 335.625 48.302,331.800 52.995,328.500 56.957 C 316.663 71.169,311.000 79.966,311.000 84.145 C 311.000 87.469,311.493 88.291,314.750 90.399 C 318.025 92.518,320.081 92.905,330.972 93.450 C 337.832 93.793,346.607 94.701,350.472 95.467 C 354.338 96.233,359.935 97.168,362.912 97.546 C 369.730 98.411,373.544 101.689,372.517 105.800 C 371.741 108.903,363.603 122.368,358.496 129.000 C 349.854 140.221,346.414 146.085,341.845 157.383 C 334.344 175.929,334.211 180.984,341.034 188.156 L 344.974 192.298 352.737 191.676 C 357.007 191.333,363.546 190.171,367.270 189.092 L 374.039 187.130 375.432 189.315 C 376.198 190.517,377.750 194.650,378.881 198.500 C 381.173 206.301,389.457 220.994,396.844 230.356 C 403.707 239.056,406.574 244.413,408.925 252.939 C 410.054 257.030,411.450 260.850,412.028 261.428 C 412.606 262.006,419.024 262.788,426.290 263.166 C 444.982 264.137,459.461 267.834,465.070 273.069 C 468.527 276.294,469.668 282.888,468.139 290.798 C 467.533 293.934,466.771 301.000,466.446 306.500 C 466.120 312.000,465.212 319.514,464.427 323.197 C 462.719 331.216,462.557 344.933,464.130 348.386 C 465.336 351.032,469.712 353.206,481.500 357.014 C 496.922 361.996,504.601 368.002,499.227 370.879 C 496.149 372.526,485.300 375.020,476.745 376.048 C 472.210 376.592,465.350 377.693,461.500 378.493 C 452.122 380.443,418.122 385.728,410.000 386.498 C 406.425 386.837,400.125 387.725,396.000 388.472 C 382.574 390.902,373.771 391.957,357.666 393.064 C 348.957 393.663,339.507 394.747,336.666 395.473 C 333.825 396.199,329.025 397.093,326.000 397.460 C 317.869 398.447,305.689 400.732,285.500 405.056 C 262.299 410.026,236.198 414.531,235.375 413.709 C 235.191 413.525,238.578 411.040,242.901 408.188 C 250.209 403.367,268.256 395.000,271.347 395.000 C 272.094 395.000,277.609 392.939,283.602 390.420 C 289.596 387.902,298.461 384.989,303.301 383.948 C 308.142 382.907,312.464 381.831,312.907 381.558 C 313.349 381.284,317.690 380.367,322.554 379.519 C 327.417 378.670,331.750 377.419,332.183 376.738 C 332.615 376.057,332.976 374.271,332.985 372.769 C 332.997 370.660,332.411 369.890,330.416 369.390 C 326.569 368.424,316.363 369.745,309.000 372.161 C 304.100 373.769,299.119 374.409,288.768 374.760 C 281.216 375.016,273.923 374.946,272.561 374.605 C 270.849 374.175,269.461 372.570,268.058 369.398 C 265.231 363.006,266.321 361.313,273.746 360.566 C 276.911 360.248,282.875 359.537,287.000 358.987 C 291.125 358.437,297.640 357.990,301.478 357.993 C 308.375 358.000,308.500 358.048,312.227 362.125 C 315.572 365.784,316.359 366.178,319.199 365.610 C 324.459 364.558,325.476 360.881,321.897 355.855 C 320.556 353.972,319.427 350.113,318.780 345.201 C 317.089 332.354,317.318 304.992,319.250 289.143 C 320.212 281.247,321.000 269.648,321.000 263.368 L 321.000 251.950 323.747 250.906 C 325.258 250.332,329.823 249.555,333.891 249.181 C 342.089 248.426,343.757 247.153,342.597 242.532 L 341.900 239.754 333.700 240.255 C 324.575 240.812,304.078 246.421,295.608 250.677 C 292.799 252.090,287.666 255.215,284.202 257.622 C 280.738 260.030,277.697 262.000,277.443 262.000 C 277.189 262.000,273.145 264.927,268.457 268.505 C 258.815 275.861,247.184 282.100,242.883 282.222 C 239.251 282.326,236.996 280.301,234.017 274.260 C 229.912 265.938,217.953 247.763,211.474 240.000 C 205.831 233.239,200.175 227.606,186.875 215.500 C 184.458 213.300,178.713 207.520,174.107 202.656 C 164.861 192.891,166.205 193.349,154.500 195.968 C 148.095 197.401,137.203 197.603,135.912 196.312 C 135.251 195.651,137.453 194.563,142.459 193.077 C 148.632 191.244,150.110 190.409,150.595 188.476 C 150.922 187.177,150.894 185.638,150.535 185.057 C 149.606 183.554,144.632 183.748,137.363 185.571 C 128.176 187.875,125.927 187.346,123.369 182.279 C 120.494 176.586,119.547 168.299,121.146 162.835 L 122.415 158.500 122.998 166.106 C 123.619 174.203,125.242 177.802,129.544 180.621 C 131.648 181.999,133.609 182.156,141.506 181.576 C 149.332 181.002,151.565 181.174,154.533 182.582 C 156.502 183.517,159.776 184.331,161.807 184.391 C 165.268 184.493,165.500 184.311,165.500 181.500 C 165.500 179.000,164.833 178.167,161.500 176.500 C 158.314 174.907,155.465 174.495,147.500 174.475 C 135.563 174.445,133.223 173.761,131.563 169.812 C 129.979 166.045,130.618 162.804,135.891 147.837 C 140.415 134.997,140.523 134.213,138.544 128.664 L 137.176 124.827 139.833 125.494 C 144.614 126.694,145.281 127.915,144.752 134.501 C 144.455 138.200,143.045 143.340,141.133 147.697 C 136.999 157.116,137.023 160.243,141.250 162.814 C 146.243 165.852,160.386 170.181,164.142 169.821 C 166.935 169.554,167.829 168.827,169.453 165.500 C 172.219 159.836,172.644 151.081,170.498 143.994 C 168.349 136.896,169.033 132.242,172.774 128.495 C 178.794 122.466,183.575 123.160,180.511 129.618 C 175.873 139.393,177.017 150.427,184.140 164.629 C 188.877 174.072,189.174 175.097,188.531 179.775 C 188.012 183.548,188.253 185.588,189.503 188.006 C 192.032 192.896,221.051 220.961,230.767 227.913 C 237.150 232.480,245.866 237.001,248.235 236.974 C 250.344 236.949,253.870 234.691,270.166 222.928 C 273.650 220.413,280.550 215.438,285.500 211.872 C 297.936 202.912,305.834 198.291,313.212 195.656 C 318.736 193.684,319.540 193.065,319.830 190.564 C 320.016 188.958,319.580 187.350,318.830 186.874 C 316.805 185.590,311.045 185.856,305.687 187.482 L 300.874 188.942 299.366 185.221 C 292.950 169.392,289.150 163.694,279.834 155.941 L 273.992 151.079 278.246 149.991 C 280.586 149.392,283.805 148.474,285.399 147.951 C 286.994 147.428,289.254 147.000,290.422 147.000 C 294.199 147.000,304.614 139.976,309.147 134.372 C 313.060 129.535,313.804 129.049,316.500 129.567 C 318.150 129.884,321.075 130.223,323.000 130.322 C 326.058 130.477,326.537 130.180,326.795 127.967 C 327.297 123.665,318.769 117.688,310.323 116.421 C 304.344 115.525,302.631 117.056,303.457 122.562 C 304.063 126.600,303.916 126.890,299.072 131.246 C 293.012 136.693,287.772 139.260,278.500 141.320 C 270.994 142.988,259.895 145.970,251.000 148.709 C 242.827 151.226,222.736 151.173,218.054 148.623 L 214.608 146.746 222.054 144.569 C 226.149 143.372,230.704 141.742,232.175 140.947 C 239.673 136.893,251.982 117.578,252.014 109.816 C 252.031 105.559,252.989 102.000,254.117 102.000 C 254.602 102.000,255.000 103.368,255.000 105.040 C 255.000 109.336,258.615 115.903,261.606 117.040 C 267.692 119.354,287.183 117.076,292.804 113.393 C 294.570 112.236,295.044 111.122,294.809 108.688 C 294.520 105.705,294.274 105.518,291.000 105.786 C 282.162 106.509,276.905 106.305,275.797 105.197 C 274.868 104.268,275.403 104.000,278.189 104.000 C 280.163 104.000,282.783 103.187,284.010 102.193 C 285.920 100.646,286.141 99.797,285.548 96.282 C 284.415 89.580,282.525 88.592,272.232 89.323 C 262.805 89.992,257.639 91.329,254.580 93.892 C 252.794 95.388,252.707 95.373,253.330 93.668 C 253.699 92.661,254.000 90.409,254.000 88.665 C 254.000 85.722,257.881 79.492,267.073 67.680 C 271.623 61.834,280.965 37.541,285.492 19.781 C 286.962 14.015,287.404 13.261,288.609 14.466 C 290.859 16.716,301.734 19.000,310.200 19.000 C 314.453 19.000,330.790 15.384,344.000 11.519 C 346.475 10.794,350.075 10.269,352.000 10.351 C 355.191 10.487,355.528 10.791,355.816 13.792 M245.644 101.240 C 245.301 106.066,244.403 111.474,243.648 113.257 C 242.003 117.145,238.538 120.450,237.063 119.539 C 235.426 118.527,235.800 116.255,237.841 114.807 C 241.971 111.876,243.402 104.235,240.532 100.441 C 238.499 97.754,238.647 95.718,241.102 92.597 C 242.862 90.360,243.454 90.132,244.735 91.195 C 245.991 92.237,246.154 94.045,245.644 101.240 M277.713 96.621 C 276.470 97.864,266.201 99.742,264.933 98.959 C 264.036 98.404,264.701 97.845,267.065 97.167 C 270.918 96.060,278.671 95.663,277.713 96.621 M113.905 101.564 C 116.207 108.221,115.004 110.477,107.874 112.885 L 101.740 114.957 102.217 107.515 C 102.787 98.636,103.988 96.786,108.914 97.199 C 112.115 97.468,112.651 97.937,113.905 101.564 M198.500 101.954 C 199.050 102.049,198.375 102.603,197.000 103.184 C 195.625 103.766,183.700 104.620,170.500 105.081 C 157.300 105.543,140.762 106.229,133.750 106.606 C 125.162 107.067,121.000 106.952,121.000 106.252 C 121.000 104.079,125.563 103.466,151.500 102.156 C 162.721 101.590,195.580 101.448,198.500 101.954 M189.800 113.200 C 190.460 113.860,191.000 115.226,191.000 116.235 C 191.000 117.847,190.727 117.916,188.750 116.802 C 187.259 115.962,182.991 115.601,176.099 115.732 C 165.309 115.938,159.785 114.768,165.514 113.491 C 167.156 113.125,168.950 112.675,169.500 112.491 C 172.338 111.545,188.716 112.116,189.800 113.200 M214.000 116.500 C 216.713 117.875,220.323 119.000,222.022 119.000 C 224.793 119.000,225.369 119.564,227.623 124.487 C 229.004 127.504,229.861 130.417,229.526 130.958 C 228.745 132.221,220.990 135.656,215.708 137.079 C 210.034 138.607,204.996 143.823,205.015 148.150 C 205.034 152.278,205.537 153.020,210.250 155.884 C 214.129 158.242,215.254 159.695,212.331 158.573 C 211.412 158.221,207.250 157.476,203.081 156.918 C 191.793 155.407,189.337 154.406,188.080 150.800 C 186.313 145.732,186.826 141.341,190.000 134.340 C 191.650 130.701,193.000 126.471,193.000 124.939 C 193.000 122.670,193.617 121.951,196.335 121.054 C 198.169 120.449,200.954 118.614,202.522 116.977 C 205.995 113.352,207.652 113.283,214.000 116.500 M151.548 115.923 C 150.620 117.424,145.122 118.247,141.172 117.477 C 138.052 116.869,137.801 116.639,139.500 115.951 C 142.303 114.815,152.246 114.792,151.548 115.923 M266.723 160.094 C 279.657 168.675,282.514 172.030,288.549 185.723 L 291.977 193.500 288.738 196.335 C 286.957 197.894,283.250 200.718,280.500 202.611 C 277.750 204.503,272.350 208.534,268.500 211.568 C 258.390 219.536,250.486 224.840,247.670 225.547 C 244.851 226.254,240.530 224.293,237.311 220.845 C 234.969 218.337,228.004 194.912,227.994 189.510 C 227.991 187.854,227.538 184.876,226.986 182.891 C 226.435 180.906,225.640 175.005,225.219 169.777 L 224.454 160.271 236.477 159.676 C 243.090 159.349,250.750 158.465,253.500 157.713 C 259.438 156.087,261.146 156.395,266.723 160.094 M214.684 168.153 C 215.354 168.709,216.134 171.039,216.419 173.332 C 218.382 189.169,219.662 196.373,221.602 202.500 C 222.822 206.350,223.719 209.603,223.597 209.730 C 222.985 210.360,201.635 189.195,200.324 186.659 C 199.444 184.959,199.042 182.538,199.369 180.907 C 199.871 178.395,198.695 173.021,196.455 167.599 C 195.706 165.785,196.076 165.731,204.568 166.420 C 209.462 166.817,214.014 167.597,214.684 168.153 M312.161 258.453 C 312.992 260.277,312.966 263.166,312.060 269.703 C 311.391 274.542,310.431 282.775,309.928 288.000 C 309.425 293.225,308.523 300.517,307.924 304.203 C 307.124 309.127,307.151 315.437,308.027 327.969 C 308.892 340.361,308.918 345.394,308.122 346.354 C 306.791 347.957,297.128 349.744,283.000 350.999 C 264.298 352.662,264.522 352.763,263.001 342.000 C 260.910 327.193,258.763 315.332,256.395 305.500 C 253.390 293.025,253.369 290.546,256.250 288.479 C 260.892 285.148,283.692 269.924,288.500 266.944 C 307.711 255.038,310.198 254.146,312.161 258.453 M144.571 347.571 C 143.707 348.436,143.000 349.991,143.000 351.027 C 143.000 357.585,129.164 377.617,123.909 378.668 C 120.550 379.340,118.710 383.569,121.115 385.092 C 126.521 388.516,136.048 382.922,140.757 373.560 L 142.738 369.620 144.775 374.225 C 147.322 379.982,149.814 381.374,156.396 380.715 C 160.315 380.322,162.230 380.648,164.642 382.117 C 167.543 383.883,170.985 384.453,176.782 384.128 C 179.421 383.980,181.336 380.203,179.762 378.250 C 179.208 377.563,177.600 377.000,176.188 377.000 C 174.390 377.000,172.236 375.502,169.000 372.000 C 164.019 366.610,162.337 366.097,158.016 368.650 C 152.291 372.031,149.436 367.521,150.474 356.734 C 150.832 353.012,150.841 349.075,150.495 347.984 C 149.740 345.605,146.746 345.397,144.571 347.571 M93.626 363.517 C 91.276 365.867,91.645 368.874,94.921 374.090 C 98.114 379.173,102.910 382.010,109.580 382.762 C 116.555 383.548,116.863 378.129,109.998 375.383 C 106.914 374.149,105.599 372.727,103.328 368.173 C 101.094 363.691,99.949 362.436,97.876 362.196 C 96.424 362.027,94.525 362.618,93.626 363.517 " stroke="none" fill="undefined" fill-rule="evenodd"/></svg>