<?xml version="1.0" standalone="no"?>
<!DOCTYPE svg PUBLIC "-//W3C//DTD SVG 20010904//EN"
 "http://www.w3.org/TR/2001/REC-SVG-20010904/DTD/svg10.dtd">
<svg version="1.0" xmlns="http://www.w3.org/2000/svg"
 width="598.000000pt" height="493.000000pt" viewBox="0 0 598.000000 493.000000"
 preserveAspectRatio="xMidYMid meet">

<g transform="translate(0.000000,493.000000) scale(0.100000,-0.100000)"
fill="#000000" stroke="none">
<path d="M3276 4919 c-2 -8 -8 -36 -13 -64 -24 -121 -87 -343 -108 -380 -12
-22 -30 -67 -39 -100 -23 -77 -55 -145 -71 -152 -8 -2 -17 -18 -20 -34 -4 -16
-10 -29 -14 -29 -11 0 -61 -79 -61 -96 0 -8 -10 -14 -25 -14 -16 0 -25 -6 -25
-15 0 -8 -7 -15 -15 -15 -8 0 -15 -7 -15 -15 0 -10 -10 -15 -32 -15 -27 0 -42
-11 -90 -62 -32 -35 -58 -68 -58 -75 0 -7 -8 -29 -17 -49 l-18 -37 -5 39 c-5
37 -7 39 -45 42 -33 2 -45 -2 -65 -23 -20 -22 -32 -25 -87 -25 -60 0 -65 2
-103 40 -31 31 -48 40 -75 40 -21 0 -37 -6 -43 -16 -14 -26 -97 -36 -185 -23
-58 9 -89 8 -123 0 -25 -7 -147 -14 -270 -16 l-224 -5 0 33 c0 52 -10 60 -71
54 -172 -18 -233 -28 -240 -38 -8 -14 -23 -299 -18 -344 4 -29 6 -30 61 -33
41 -2 77 4 131 23 40 14 82 25 92 25 10 0 27 8 37 17 16 14 48 18 171 24 84 3
154 5 156 3 1 -1 0 -8 -4 -14 -5 -8 -36 -10 -104 -5 -53 3 -109 2 -126 -3 -30
-9 -30 -10 -27 -72 1 -48 7 -69 22 -85 24 -25 24 -37 6 -90 -15 -42 -34 -56
-102 -74 -37 -10 -43 -16 -67 -69 l-26 -59 -77 -6 c-42 -4 -103 -7 -134 -7
l-57 0 -6 -62 c-10 -98 -26 -173 -37 -176 -5 -2 -10 -9 -10 -17 0 -7 -11 -38
-25 -68 -13 -31 -32 -89 -41 -129 -10 -40 -23 -80 -31 -89 -7 -8 -13 -21 -13
-27 0 -7 -4 -12 -10 -12 -5 0 -10 -13 -10 -29 0 -15 -12 -59 -26 -97 -14 -38
-30 -87 -36 -109 -6 -22 -15 -44 -19 -49 -5 -6 -9 -21 -9 -33 0 -37 -31 -153
-41 -153 -5 0 -9 -18 -9 -39 0 -22 -5 -41 -12 -44 -7 -2 -19 -26 -26 -53 -7
-27 -18 -57 -23 -66 -5 -10 -9 -30 -9 -46 0 -16 -9 -47 -20 -70 -11 -22 -20
-48 -20 -56 0 -9 -8 -30 -18 -48 -10 -18 -24 -53 -32 -78 -7 -25 -24 -65 -36
-90 -13 -25 -30 -61 -38 -80 -7 -19 -23 -56 -34 -81 -12 -26 -28 -73 -36 -105
-33 -130 -56 -203 -84 -276 -17 -43 -33 -97 -37 -120 -4 -23 -15 -58 -24 -79
l-16 -37 -58 71 c-32 40 -63 80 -70 89 -8 11 -33 19 -74 24 l-63 7 0 -37 c0
-29 4 -36 20 -36 11 0 20 -5 20 -11 0 -6 8 -23 19 -37 40 -57 57 -223 28 -281
-9 -19 -17 -47 -17 -63 0 -25 3 -28 33 -28 62 0 87 46 87 156 l0 64 43 -24
c24 -14 60 -27 80 -31 20 -4 37 -11 37 -15 0 -14 86 -40 132 -40 38 0 51 5 77
32 l32 32 27 -31 c15 -17 45 -37 67 -44 22 -8 42 -16 45 -19 14 -14 65 -30 98
-30 50 1 116 17 120 29 2 6 19 11 38 11 27 0 34 4 34 20 0 16 7 20 30 20 28 0
30 3 30 35 0 33 -2 35 -35 35 -24 0 -35 -5 -35 -15 0 -10 -10 -15 -30 -15 -17
0 -33 -6 -36 -14 -11 -28 -184 -30 -184 -2 0 6 -14 22 -30 35 -17 13 -44 45
-62 73 -31 48 -33 49 -77 46 -42 -3 -47 -6 -56 -35 -5 -18 -15 -33 -22 -33 -7
0 -13 -4 -13 -10 0 -15 -42 -11 -64 5 -11 8 -30 15 -43 15 -13 0 -23 6 -23 13
1 6 19 64 41 127 22 63 56 167 75 230 19 63 43 140 53 170 33 94 40 112 72
205 42 122 60 165 81 195 9 14 21 43 27 65 5 22 23 85 41 140 18 55 50 161 72
235 22 74 52 176 68 225 15 50 31 106 35 125 4 19 11 37 15 40 4 3 27 61 50
130 24 69 46 130 50 135 15 22 60 146 86 232 30 102 24 98 142 105 l44 2 5
-104 c2 -58 9 -109 14 -114 5 -6 9 -20 9 -33 0 -13 5 -23 11 -23 5 0 14 -13
20 -28 6 -19 25 -36 54 -50 31 -15 45 -28 45 -42 0 -11 10 -28 21 -38 12 -9
27 -23 34 -29 24 -23 89 -24 209 -3 134 23 128 24 203 -49 23 -23 47 -41 53
-41 5 0 10 -4 10 -8 0 -11 191 -202 201 -202 5 0 21 -18 35 -40 15 -22 31 -40
36 -40 11 0 148 -141 148 -152 0 -8 17 -30 58 -75 12 -13 33 -46 47 -73 14
-27 29 -51 35 -55 6 -4 26 -37 45 -75 19 -38 39 -71 44 -74 5 -4 19 -27 31
-52 15 -29 32 -49 49 -55 14 -5 34 -14 43 -19 10 -6 31 -10 47 -10 26 0 29 -3
35 -47 4 -27 13 -57 21 -67 8 -11 15 -34 15 -51 0 -18 9 -58 20 -91 12 -35 20
-87 20 -127 0 -38 4 -76 9 -85 5 -10 15 -65 21 -122 7 -58 16 -112 20 -120 5
-8 11 -36 15 -63 6 -39 5 -47 -9 -47 -10 0 -16 -9 -16 -24 0 -14 -14 -40 -32
-59 -37 -38 -137 -92 -149 -80 -4 4 -14 40 -22 78 l-14 70 -35 3 c-29 3 -38
-1 -43 -17 -3 -12 -11 -21 -16 -21 -6 0 -20 -10 -33 -22 -12 -13 -40 -33 -62
-46 -130 -77 -162 -94 -186 -99 -23 -5 -27 -2 -30 23 -3 27 -6 29 -43 29 -39
0 -40 -1 -43 -39 -2 -21 2 -51 9 -67 11 -28 13 -29 85 -29 41 0 82 4 92 9 9 6
42 21 72 36 64 30 83 42 118 73 31 27 42 28 42 1 0 -11 12 -36 27 -56 l27 -35
68 4 c71 6 136 37 188 93 27 29 39 23 65 -34 15 -35 22 -40 63 -46 l46 -7 -55
-19 c-30 -11 -76 -27 -104 -35 -62 -19 -150 -61 -166 -80 -6 -8 -18 -14 -27
-14 -8 0 -30 -11 -48 -25 -18 -14 -37 -25 -41 -25 -14 0 -79 -72 -97 -107 -9
-18 -16 -49 -16 -71 0 -58 23 -66 162 -58 170 10 361 39 382 58 6 4 24 8 42 8
17 0 44 5 61 10 37 13 335 71 538 105 83 14 173 29 200 35 125 24 183 32 215
31 69 -2 316 21 385 35 87 19 287 49 380 59 39 3 88 10 110 15 22 5 96 14 165
19 69 6 168 20 220 31 52 10 142 26 199 35 248 38 301 63 301 138 0 47 -23
129 -44 162 -20 31 -111 72 -261 119 -81 25 -154 61 -161 80 -3 7 0 51 6 97
58 445 70 681 38 751 -21 47 -71 79 -183 117 -118 39 -195 51 -336 51 -144 0
-154 6 -188 112 -33 101 -43 118 -136 243 -76 101 -118 169 -183 297 -15 28
-29 84 -37 143 -8 53 -19 103 -26 111 -13 16 -75 19 -83 5 -9 -14 -194 -70
-257 -77 -54 -6 -57 -5 -77 24 -12 16 -22 36 -22 44 0 23 61 191 90 248 58
115 79 146 136 208 19 21 34 40 34 44 0 4 6 13 13 20 43 44 129 189 151 256
33 98 -2 211 -76 244 -18 9 -71 18 -118 22 -47 3 -116 13 -155 21 -39 8 -122
15 -187 15 -64 0 -128 4 -142 10 l-26 10 47 68 c89 129 169 228 301 371 63 69
134 183 153 244 21 70 24 157 8 222 -10 39 -16 46 -48 55 -59 16 -165 12 -228
-9 -32 -11 -87 -27 -123 -36 -36 -9 -81 -20 -100 -25 -76 -19 -98 -22 -170
-22 -89 0 -138 18 -173 63 -22 28 -33 33 -81 37 -42 3 -57 1 -60 -9z m890
-124 c17 -69 -58 -216 -177 -345 -22 -24 -47 -57 -55 -72 -8 -15 -20 -31 -27
-35 -6 -4 -37 -39 -68 -78 -31 -38 -65 -80 -75 -92 -40 -46 -54 -63 -54 -68 0
-3 -17 -29 -37 -57 -25 -36 -38 -67 -41 -98 -4 -44 -3 -46 39 -74 42 -28 51
-30 189 -37 152 -7 211 -14 270 -29 19 -5 65 -12 103 -15 86 -8 132 -41 124
-89 -5 -34 -97 -190 -159 -271 -21 -27 -48 -63 -60 -80 -12 -16 -35 -47 -52
-69 -26 -34 -45 -76 -118 -261 -60 -151 -50 -235 36 -314 24 -23 30 -24 113
-18 49 3 126 17 173 31 47 13 88 22 91 18 8 -10 49 -127 49 -142 0 -25 104
-224 136 -261 8 -8 14 -21 14 -28 0 -6 7 -14 15 -17 8 -4 15 -11 15 -16 0 -6
12 -25 28 -43 52 -62 60 -72 94 -136 30 -57 40 -85 63 -192 8 -39 37 -47 176
-47 65 0 140 -5 166 -11 246 -58 310 -89 331 -159 7 -25 11 -67 9 -95 -13
-148 -39 -370 -52 -440 -15 -81 -20 -228 -9 -283 7 -36 59 -64 184 -101 116
-34 243 -100 254 -134 7 -18 6 -31 -1 -38 -16 -16 -149 -46 -283 -64 -63 -8
-142 -22 -175 -29 -33 -8 -82 -17 -110 -20 -44 -5 -94 -13 -290 -46 -27 -5
-97 -14 -155 -20 -58 -6 -152 -19 -210 -29 -171 -31 -239 -40 -365 -46 -148
-8 -274 -22 -340 -40 -27 -8 -77 -17 -110 -20 -92 -10 -281 -45 -480 -90 -221
-50 -343 -73 -464 -85 -57 -5 -106 -10 -109 -10 -16 0 41 47 107 86 75 46 278
134 308 134 8 0 43 12 77 26 33 15 75 32 91 39 72 31 327 99 440 119 17 2 47
7 68 11 l38 6 -3 47 -3 47 -81 0 c-78 -1 -125 -10 -209 -42 -30 -12 -94 -17
-247 -20 l-208 -5 0 31 c0 17 -4 31 -9 31 -9 0 -33 91 -26 98 2 2 36 7 77 12
226 25 310 31 377 28 l75 -3 8 -33 c10 -38 43 -55 97 -50 35 3 36 5 39 47 3
34 -1 46 -17 57 -25 18 -37 75 -51 237 -15 174 -15 307 -2 397 33 212 44 346
40 464 l-4 125 26 11 c14 6 71 14 126 18 l99 7 3 53 3 54 -78 -7 c-92 -7 -172
-25 -308 -66 -101 -31 -245 -96 -245 -111 0 -4 -5 -8 -10 -8 -14 0 -72 -41
-83 -57 -4 -7 -16 -13 -27 -13 -10 0 -37 -18 -60 -40 -23 -22 -48 -40 -56 -40
-8 0 -17 -7 -20 -15 -4 -8 -12 -15 -19 -15 -7 0 -15 -6 -18 -12 -3 -7 -31 -26
-64 -43 -32 -16 -60 -32 -63 -35 -15 -15 -53 -30 -75 -30 -14 0 -25 -4 -25
-10 0 -5 -7 -10 -15 -10 -37 0 -64 26 -99 94 -20 39 -61 109 -91 156 -29 47
-60 97 -68 112 -33 61 -192 242 -287 328 -82 73 -171 161 -277 274 -66 70 -75
76 -112 76 -21 0 -41 -4 -43 -9 -4 -11 -240 -36 -262 -28 -26 10 -19 37 8 37
14 0 27 4 30 9 3 4 33 14 66 20 l60 12 0 45 0 44 -37 0 c-20 0 -82 -14 -137
-31 l-100 -31 -23 26 c-12 14 -29 50 -38 78 -17 58 -20 184 -5 193 6 4 10 -11
10 -37 0 -64 24 -119 67 -157 l38 -33 123 6 c101 5 128 4 153 -9 16 -9 52 -19
80 -22 l49 -6 0 40 c0 38 -2 41 -43 56 -89 34 -144 42 -217 29 -83 -14 -109
-6 -139 41 -25 40 -26 76 -5 132 8 22 34 93 56 159 38 108 41 122 31 165 -5
25 -13 54 -18 64 -9 22 24 23 65 2 24 -13 30 -22 30 -49 0 -63 -20 -141 -55
-213 -52 -107 -46 -143 28 -177 64 -30 217 -76 249 -76 31 0 35 5 58 58 36 82
40 189 10 249 -42 85 -13 175 70 222 32 18 43 20 58 10 18 -12 18 -14 -9 -68
-25 -48 -29 -67 -29 -141 0 -108 16 -168 68 -253 23 -37 42 -73 42 -80 0 -7 5
-18 10 -23 12 -12 13 -48 4 -116 -5 -39 -3 -49 10 -54 9 -3 16 -14 16 -23 1
-24 149 -186 215 -235 46 -33 79 -63 138 -124 48 -51 150 -124 213 -153 24
-12 48 -27 55 -35 23 -27 65 -15 146 41 43 30 116 82 163 115 47 33 92 66 100
73 105 89 341 230 421 250 52 14 54 15 57 52 4 44 -7 55 -59 55 -36 0 -124
-25 -146 -42 -18 -14 -30 -2 -38 39 -3 20 -27 80 -53 132 -39 81 -58 109 -130
179 -46 45 -88 82 -93 82 -5 0 -9 4 -9 8 0 12 150 57 179 54 53 -6 196 105
276 215 11 15 15 15 49 -5 21 -12 53 -22 72 -22 32 0 34 2 34 36 0 42 -21 64
-98 100 -36 18 -71 26 -115 27 l-62 2 -3 -35 c-3 -24 2 -38 14 -47 17 -12 15
-17 -26 -59 -82 -84 -178 -133 -290 -149 -25 -4 -67 -15 -95 -25 -47 -17 -164
-49 -265 -72 -68 -15 -302 -16 -308 0 -2 6 -12 12 -22 12 -9 0 -23 6 -29 14
-10 12 -1 18 61 36 124 36 148 49 200 106 91 99 150 214 163 317 5 38 12 57
21 57 9 0 14 -12 14 -35 0 -22 6 -38 15 -41 8 -4 15 -18 15 -33 0 -37 30 -52
114 -58 86 -6 234 19 289 50 33 18 37 25 37 59 0 37 -1 38 -35 38 -20 0 -48
-6 -63 -14 -23 -12 -34 -11 -77 2 l-50 15 35 10 c67 18 80 28 80 64 0 18 -4
33 -9 33 -6 0 -11 17 -13 38 l-3 37 -60 3 c-115 6 -264 -26 -287 -62 -4 -6 -8
18 -7 54 0 60 2 67 29 90 17 13 30 28 30 33 0 4 16 29 35 54 19 25 35 50 35
55 0 5 11 19 25 32 52 48 158 322 220 568 l17 67 36 -23 c39 -24 154 -46 243
-46 57 0 212 36 404 93 28 8 67 16 87 16 32 1 39 -3 44 -24z m-1303 -1033 c-2
-89 -7 -121 -24 -158 -29 -65 -54 -91 -73 -75 -7 6 -16 20 -19 30 -3 15 2 20
25 25 34 7 58 53 58 113 0 42 -23 83 -46 83 -15 0 -17 -5 32 76 9 15 22 24 32
22 15 -3 17 -17 15 -116z m337 28 c-41 -17 -121 -28 -107 -14 13 13 84 33 117
33 l35 0 -45 -19z m-1870 -51 c18 -84 8 -108 -50 -124 -25 -6 -55 -15 -67 -19
-21 -7 -23 -4 -23 32 0 21 3 66 6 100 7 66 9 68 85 71 l36 1 13 -61z m945 -8
c-3 -2 -106 -8 -230 -12 -125 -5 -278 -16 -341 -24 -150 -20 -274 -20 -274 -1
0 17 43 26 121 26 32 0 60 3 62 8 3 4 154 7 335 7 182 0 329 -1 327 -4z m-45
-137 c0 -14 4 -34 10 -44 9 -16 4 -15 -35 7 -40 22 -56 25 -133 23 -120 -3
-134 -2 -130 13 6 16 61 24 186 26 l102 1 0 -26z m240 -5 c24 -11 52 -27 62
-36 13 -11 30 -14 63 -11 29 4 45 2 45 -6 0 -19 53 -116 63 -116 26 0 -31 -41
-77 -56 -28 -9 -55 -20 -60 -25 -6 -5 -20 -9 -33 -9 -29 0 -96 -41 -117 -72
-18 -26 -21 -90 -5 -119 5 -11 21 -24 35 -29 13 -5 24 -14 24 -19 0 -10 -30
-8 -172 11 l-87 12 -16 38 c-16 41 -21 153 -6 162 21 13 61 119 61 161 0 44 1
45 31 45 23 0 42 11 76 45 24 25 50 45 56 45 7 0 32 -10 57 -21z m651 -525
c30 -20 70 -50 89 -66 19 -15 40 -28 47 -28 7 0 13 -6 13 -14 0 -7 16 -33 35
-57 19 -24 35 -47 35 -52 0 -4 10 -29 21 -55 12 -26 28 -62 36 -80 18 -42 14
-76 -11 -80 -11 -2 -33 -17 -50 -33 -17 -16 -34 -29 -38 -29 -11 0 -72 -43
-104 -73 -57 -53 -248 -188 -289 -205 -26 -11 -36 -10 -65 4 -63 31 -97 63
-103 97 -4 17 -16 64 -28 102 -34 114 -89 414 -89 489 0 26 -4 55 -10 65 -9
17 1 19 143 24 87 3 173 12 202 21 69 20 104 14 166 -30z m-1684 -11 c-3 -10
-5 -4 -5 12 0 17 2 24 5 18 2 -7 2 -21 0 -30z m1082 -79 c2 -1 7 -40 12 -86
12 -123 38 -280 48 -292 5 -6 12 -32 15 -58 l7 -47 -33 29 c-230 207 -243 224
-240 300 2 39 -3 73 -17 109 -12 28 -21 54 -21 57 0 6 222 -5 229 -12z m1135
-1056 c14 -35 12 -64 -19 -248 -29 -172 -40 -325 -35 -485 2 -88 5 -196 5
-240 l0 -79 -90 -13 c-49 -7 -117 -17 -150 -22 -89 -15 -227 -23 -257 -16 -24
6 -26 12 -37 98 -19 148 -49 312 -88 469 -41 168 -42 159 44 208 31 18 61 36
67 41 6 5 41 29 78 53 37 25 96 65 131 90 36 25 68 46 72 46 5 0 22 11 39 24
17 13 51 33 76 46 25 12 52 28 60 35 8 7 29 15 45 18 17 2 34 5 38 6 4 0 14
-14 21 -31z"/>
<path d="M1680 864 c-6 -14 -10 -39 -10 -55 0 -16 -4 -29 -10 -29 -5 0 -10 -4
-10 -9 0 -10 -36 -89 -53 -115 -7 -10 -24 -31 -38 -45 -15 -14 -29 -36 -33
-48 -4 -12 -15 -25 -26 -28 -10 -3 -21 -12 -24 -20 -3 -9 -19 -15 -41 -15 -36
0 -36 -1 -33 -37 3 -38 3 -38 51 -41 28 -2 47 1 47 7 0 6 8 11 18 11 21 1 52
23 52 39 0 6 6 11 13 11 12 0 57 58 57 74 0 9 30 40 34 35 1 -2 11 -24 21 -48
25 -57 52 -74 112 -69 27 3 55 8 64 12 9 4 24 -1 40 -15 33 -29 63 -39 117
-39 58 1 82 18 82 59 0 30 -1 31 -43 31 -50 0 -81 19 -103 63 -9 18 -22 35
-28 39 -23 15 -69 7 -98 -17 -37 -31 -43 -31 -65 2 -15 23 -18 46 -15 150 l2
123 -35 0 c-29 0 -37 -5 -45 -26z"/>
<path d="M1086 678 c-20 -28 -22 -88 -3 -88 8 0 22 -16 33 -36 10 -20 28 -42
39 -48 11 -6 22 -14 25 -18 8 -10 89 -27 128 -28 32 0 33 1 30 37 -3 35 -6 38
-41 44 -50 8 -72 31 -96 99 -19 53 -21 55 -59 58 -32 2 -43 -1 -56 -20z"/>
</g>
</svg>
