<svg xmlns="http://www.w3.org/2000/svg" width="549.755" height="459.885" viewBox="0 0 145.456 121.678" xmlns:v="https://vecta.io/nano"><path d="M80.488 5.002c-1.372 0-1.406.018-1.406.76 0 .418-.185 1.282-.41 1.918s-.714 2.408-1.087 3.936-.887 3.135-1.145 3.572-.737 1.627-1.066 2.646c-.639 1.977-3.003 5.84-4.343 7.095-.447.419-1.289.974-1.871 1.236-1.813.813-2.873 2.092-3.611 4.355-.342 1.048-.451 1.194-.504.676-.115-1.125-.127-1.181-.34-1.521-.305-.487-1.257-.4-2.16.198-.509.337-1.242.526-2.041.527-1.02.002-1.418-.148-2.184-.821-1.04-.913-1.654-.931-3.827-.116-1.008.378-1.431.397-2.995.133-1.385-.234-2.114-.233-3.048.002-.675.17-3.331.353-5.902.406l-4.675.097-.423-1.078-.424-1.078-1.528.195-3.049.378c-.837.101-1.694.357-1.905.57-.543.548-.903 7.731-.417 8.317.577.695 2.299.458 5.86-.807 2.806-.997 3.541-1.166 4.137-.954.715.254.71.26-.392.451-1.59.275-1.782 1.445-.569 3.465.418.696.448.961.192 1.72-.401 1.189-.715 1.558-1.329 1.558-.904 0-1.989.747-2.428 1.672-.235.496-.596 1.041-.802 1.212s-1.579.383-3.053.473c-2.441.149-2.689.213-2.796.718l-.41 2.143c-.161.873-.747 2.719-1.301 4.101l-1.203 3.44c-.108.509-.429 1.402-.715 1.984s-.693 1.713-.905 2.514-.739 2.374-1.17 3.497-.784 2.373-.784 2.778-.491 2.105-1.091 3.779l-1.456 4.366c-.561 2.035-1.204 3.94-1.428 4.233-.111.146-.384.879-.606 1.631s-.577 1.644-.791 1.984c-.659 1.05-2.264 5.05-2.551 6.355-.15.682-.864 3.01-1.587 5.175l-1.494 5.058-.179 1.12-.647-.608c-.356-.334-1.08-1.175-1.609-1.868-.951-1.246-1.973-1.778-3.427-1.781C5.079 96.813 5 96.95 5 97.84c0 .807.114 1.058.533 1.167 1.212.317 1.629 2.957 1.263 7.992l-.076 1.058 1.323.144c.383.042.839.141 1.261.264-.226-.047-.083-1.51-.022-3.3.041-1.227.147-2.116.233-1.976.3.485 5.279 2.354 6.268 2.353.545-.001 1.392-.246 1.883-.545.889-.542.894-.542 1.455-.021.967.898 3.567 1.89 4.952 1.89 2.111 0 5.242-1.462 5.26-2.456.013-.768-.599-.785-2.496-.071-.985.371-2.283.674-2.885.675-1.018.001-1.222-.136-2.967-1.984-2.23-2.361-2.814-2.508-4.019-1.006l-.786.98-1.158-.364c-.637-.2-1.266-.457-1.397-.57-.137-.118.331-1.88 1.093-4.121l3.114-9.339 2.545-6.879c.419-.8.924-2.051 1.121-2.778l1.735-5.821 2.177-7.144c.897-2.962 2.081-6.26 3.798-10.583.636-1.601 1.349-3.585 1.584-4.41s.615-1.655.844-1.845 1.087-.409 1.906-.486l1.489-.14.073 2.382c.086 2.803.906 4.901 2.172 5.555.411.212.994.786 1.296 1.274s.962 1.11 1.469 1.383c.848.457 1.123.47 3.512.175 4.324-.535 3.743-.776 8.038 3.336 6.249 5.982 9.62 9.674 10.799 11.829a26.26 26.26 0 0 0 1.162 1.903c.322.466 1.11 1.761 1.751 2.877 1.015 1.767 1.323 2.096 2.381 2.538.669.279 1.375.593 1.571.697.579.308 2.423 6.893 2.423 8.652 0 1.062.305 3.156.97 6.655.45 2.37.287 3.398-.747 4.713-.588.747-3.017 2.096-3.376 1.874-.122-.076-.365-.703-.539-1.395-.58-2.303-1.069-2.433-2.954-.783-1.6 1.4-5.033 3.355-5.892 3.355-.408 0-.679-.187-.769-.529-.093-.355-.361-.529-.815-.529-1.202 0-1.647 1.694-.696 2.646 1.173 1.173 4.873.326 7.739-1.771.89-.651 1.257-.803 1.257-.52 0 .22.319.778.708 1.241.679.806.777.838 2.337.738 1.368-.087 1.848-.261 2.996-1.086.752-.54 1.516-.982 1.698-.981s.532.355.778.788c.343.602.701.827 1.53.96.596.095 1.039.217.986.27s-1.223.434-2.599.847c-4.038 1.212-8.686 4.049-9.632 5.878-.405.782-.508 2.017-.229 2.743.329.857 8.14.382 12.04-.732 1.503-.429 7.033-1.604 9.496-2.017.8-.134 2.765-.497 4.366-.806 3.926-.757 7.636-1.289 10.98-1.573 4.105-.348 8.541-.819 8.713-.925.509-.314 8.509-1.412 15.629-2.147.8-.082 2.229-.313 3.175-.512s2.732-.5 3.969-.669c2.729-.372 6.256-1.27 7.105-1.808.571-.362.614-.539.517-2.133-.058-.956-.279-2.091-.49-2.522-.468-.952-1.775-1.868-3.404-2.384-2.987-.946-5.459-1.959-6.037-2.474-.524-.466-.602-.726-.47-1.56l.413-2.587c.252-1.568.629-5.822.951-10.721.195-2.972-.304-5.237-1.294-5.868-1.141-.727-4.84-2.027-6.572-2.309-.958-.156-2.898-.284-4.311-.284-2.333 0-2.626-.057-3.182-.612-.336-.336-.823-1.259-1.082-2.051-.685-2.094-1.062-2.764-3.046-5.407-2.864-3.817-4.495-6.942-4.805-9.206-.469-3.419-1.12-4.141-2.921-3.242-.861.43-1.395.589-4.646 1.384-1.512.37-1.714.367-2.315-.026-.879-.576-.849-1.383.156-4.139 1.059-2.906 2.01-4.562 4.475-7.79 2.505-3.281 3.488-4.891 4.088-6.699 1.114-3.353-.578-6.124-3.746-6.138-.55-.002-2.12-.24-3.488-.529-1.643-.347-3.508-.525-5.49-.525-1.651 0-3.002-.077-3.002-.171 0-.603 2.519-3.934 6.373-8.426 3.106-3.621 4.13-5.108 4.744-6.895.853-2.479.575-5.875-.528-6.466-.773-.414-5.083-.333-5.984.112-1.429.705-4.989 1.502-7.402 1.656-2.832.181-4.108-.146-4.935-1.266-.505-.682-.729-.77-1.975-.77zM98.133 7.74c.844.036.934.117 1.01.911.144 1.494-.663 3.274-2.534 5.596l-2.444 3.065c-.364.469-1.376 1.711-2.249 2.76-3.132 3.76-4.63 6.088-4.63 7.193 0 .879.13 1.097.992 1.655s1.411.663 4.292.807c1.815.091 4.137.331 5.159.534s2.504.45 3.291.55c1.804.229 2.813 1.097 2.541 2.184-.205.821-2.359 4.383-3.71 6.138-2.287 2.969-3.197 4.52-4.405 7.51-1.985 4.907-2.02 6.245-.215 8.142l1.043 1.096 2.054-.164c1.13-.091 2.86-.398 3.845-.684l1.791-.519.368.578c.203.318.613 1.412.913 2.43.606 2.064 2.798 5.951 4.753 8.428 1.816 2.302 2.575 3.72 3.197 5.975.299 1.082.668 2.093.821 2.246s1.851.36 3.773.46c4.946.257 8.777 1.235 10.261 2.62.915.853 1.216 2.598.812 4.691-.16.83-.362 2.7-.448 4.155s-.326 3.443-.534 4.418c-.452 2.122-.495 5.751-.079 6.665.319.7 1.477 1.275 4.596 2.283 4.08 1.318 6.112 2.907 4.69 3.669-.814.436-3.685 1.095-5.948 1.367-1.2.144-3.015.435-4.033.647-2.481.516-11.477 1.914-13.626 2.118-.946.09-2.613.325-3.704.522-3.552.643-5.881.922-10.143 1.215-2.304.158-4.805.445-5.556.637a26.87 26.87 0 0 1-2.822.526c-2.151.261-5.374.866-10.716 2.01-6.139 1.315-13.044 2.507-13.262 2.289-.049-.049.847-.706 1.991-1.461 1.934-1.276 6.709-3.489 7.527-3.489.198 0 1.657-.545 3.242-1.212s3.932-1.437 5.212-1.713 2.424-.56 2.541-.632 1.266-.315 2.553-.54 2.433-.556 2.548-.736.209-.653.212-1.05c.003-.558-.152-.762-.68-.894-1.018-.256-3.718.094-5.666.733-1.296.425-2.614.595-5.353.688-1.998.068-3.928.049-4.288-.041-.453-.114-.82-.538-1.191-1.378-.748-1.691-.46-2.139 1.505-2.337a134.05 134.05 0 0 0 3.507-.418c1.091-.146 2.815-.264 3.831-.263 1.825.002 1.858.015 2.844 1.093.885.968 1.093 1.072 1.845.922 1.392-.278 1.661-1.251.714-2.581-.355-.498-.654-1.519-.825-2.819-.447-3.399-.387-10.639.125-14.832.255-2.089.463-5.158.463-6.82v-3.021l.727-.276c.4-.152 1.608-.357 2.684-.456 2.169-.2 2.611-.537 2.304-1.76l-.184-.735-2.17.132c-2.414.147-7.837 1.632-10.078 2.758-.743.374-2.101 1.2-3.018 1.837s-1.721 1.159-1.788 1.159-1.137.774-2.378 1.721c-2.551 1.946-5.629 3.597-6.767 3.63-.961.028-1.557-.508-2.346-2.107-1.086-2.202-4.25-7.011-5.964-9.065-1.493-1.789-2.99-3.279-6.509-6.482-.64-.582-2.159-2.111-3.378-3.398-2.446-2.584-2.091-2.462-5.188-1.769-1.695.379-4.576.433-4.918.091-.175-.175.408-.463 1.732-.856 1.633-.485 2.025-.706 2.153-1.217.086-.344.079-.751-.016-.905-.246-.398-1.562-.346-3.485.136-2.431.61-3.026.47-3.703-.871-.761-1.506-1.011-3.699-.588-5.145l.335-1.147.155 2.012c.164 2.142.593 3.095 1.732 3.841.557.365 1.076.406 3.165.253 2.071-.152 2.662-.106 3.447.266.521.247 1.387.463 1.924.479.916.027.977-.021.977-.765 0-.661-.176-.882-1.058-1.323-.843-.421-1.597-.531-3.704-.536-3.158-.008-3.778-.189-4.217-1.234-.419-.997-.25-1.855 1.145-5.815 1.197-3.397 1.225-3.604.702-5.073l-.362-1.015.703.177c1.265.317 1.442.64 1.302 2.383-.079.979-.452 2.339-.958 3.492-1.094 2.492-1.087 3.32.031 4 1.321.804 5.063 1.949 6.057 1.854.739-.071.975-.263 1.405-1.143.732-1.499.844-3.815.276-5.69s-.388-3.11.602-4.101c1.593-1.595 2.858-1.412 2.047.297-1.227 2.586-.924 5.506.96 9.264 1.253 2.498 1.332 2.77 1.162 4.008-.137.998-.074 1.538.257 2.178.669 1.294 8.348 8.719 10.918 10.559 1.689 1.208 3.995 2.405 4.621 2.398.558-.007 1.491-.604 5.803-3.717l4.057-2.925c3.29-2.371 5.38-3.593 7.332-4.29 1.462-.522 1.674-.685 1.751-1.347.049-.425-.066-.851-.265-.977-.536-.34-2.06-.269-3.477.161l-1.274.386-.399-.984c-1.698-4.188-2.703-5.696-5.168-7.747l-1.546-1.287 1.126-.288c.619-.158 1.471-.401 1.892-.54s1.02-.252 1.329-.252c.999 0 3.755-1.859 4.954-3.341 1.035-1.28 1.232-1.408 1.946-1.271.437.084 1.21.174 1.72.2.809.041.936-.038 1.004-.623.133-1.138-2.124-2.72-4.358-3.055-1.582-.237-2.035.168-1.816 1.625.16 1.068.122 1.145-1.16 2.298-1.603 1.441-2.99 2.12-5.443 2.665-1.986.441-4.923 1.23-7.276 1.955-2.162.666-7.478.652-8.717-.023l-.912-.497 1.97-.576c1.083-.317 2.289-.748 2.678-.958 1.984-1.073 5.24-6.183 5.249-8.237.004-1.126.258-2.068.557-2.068.128 0 .234.362.234.804 0 1.137.956 2.874 1.748 3.175 1.61.612 6.768.01 8.255-.965.467-.306.592-.601.53-1.245-.077-.789-.141-.839-1.008-.768-2.338.191-3.729.138-4.022-.156-.246-.246-.104-.317.633-.317.522 0 1.215-.215 1.54-.478.505-.409.564-.634.407-1.564-.3-1.773-.8-2.035-3.523-1.841-2.494.177-3.861.531-4.671 1.209-.473.396-.496.392-.331-.059.098-.266.177-.863.177-1.324 0-.779 1.027-2.427 3.459-5.552 1.204-1.547 3.676-7.974 4.874-12.673.389-1.526.506-1.725.825-1.407.595.595 3.472 1.2 5.712 1.2 1.125 0 5.448-.957 8.943-1.98.655-.192 1.607-.331 2.117-.309zM69.422 28.969c.102-.001.203.057.33.162.332.276.376.754.241 2.658-.091 1.277-.328 2.707-.528 3.179-.435 1.029-1.352 1.903-1.743 1.662-.433-.268-.334-.869.206-1.252 1.093-.775 1.471-2.797.712-3.801-.538-.711-.499-1.25.151-2.076.291-.37.461-.532.631-.533zm8.545 1.455c.377.003.606.048.511.143-.329.329-3.046.826-3.381.619-.237-.147-.062-.295.564-.474a9.72 9.72 0 0 1 2.306-.287zm-44.595.285c.134-.008.281-.003.444.011.847.071.989.195 1.32 1.154.609 1.761.291 2.359-1.596 2.996l-1.623.548.126-1.969c.132-2.056.392-2.687 1.328-2.74zm18.753 1.189c2.641-.011 5.008.013 5.394.08.146.025-.033.172-.397.326s-3.519.38-7.011.502l-9.723.404c-2.272.122-3.373.092-3.373-.094 0-.575 1.207-.737 8.07-1.084 1.484-.075 4.4-.122 7.041-.133zm-.325 2.741c1.478.008 3.238.134 3.417.314s.317.536.317.803c0 .427-.072.445-.595.15-.394-.222-1.524-.317-3.347-.283-2.855.055-4.317-.255-2.801-.593a16.01 16.01 0 0 0 1.055-.265c.282-.094 1.067-.131 1.954-.126zm8.017.571c.434-.018.964.19 1.804.616.718.364 1.673.661 2.122.661.733 0 .886.149 1.482 1.452.365.798.592 1.569.503 1.712-.207.334-2.259 1.243-3.656 1.62-1.501.404-2.834 1.785-2.829 2.93.005 1.092.138 1.288 1.385 2.046 1.026.624 1.324 1.008.55.712-.243-.093-1.344-.29-2.447-.438-2.987-.4-3.636-.665-3.969-1.619-.468-1.341-.332-2.502.508-4.355.437-.963.794-2.082.794-2.487 0-.6.163-.791.882-1.028.485-.16 1.222-.645 1.637-1.078.459-.48.799-.724 1.234-.742zm-15.967.242c.726-.002 1.337.072 1.247.221-.246.397-1.7.615-2.746.411-.825-.161-.892-.222-.442-.404.371-.15 1.214-.227 1.941-.229zm29.63 11.031c.646.005 1.168.266 2.09.878 3.422 2.27 4.178 3.158 5.775 6.781l.907 2.058-.857.75c-.471.412-1.452 1.16-2.18 1.66s-2.156 1.567-3.175 2.37c-2.675 2.108-4.766 3.512-5.511 3.699s-1.889-.332-2.741-1.244c-.62-.664-2.462-6.861-2.465-8.29-.001-.438-.121-1.226-.267-1.751s-.356-2.087-.468-3.47l-.203-2.515 3.181-.157c1.75-.087 3.777-.32 4.504-.519.589-.161 1.021-.251 1.408-.248zm-16.073 2.444c.336-.001.876.04 1.719.108 1.295.105 2.499.311 2.676.458s.383.764.459 1.37c.519 4.19.858 6.096 1.371 7.717.323 1.019.56 1.879.528 1.913-.162.167-5.811-5.433-6.158-6.104-.233-.45-.339-1.09-.253-1.522.133-.665-.178-2.087-.771-3.521-.124-.3-.132-.418.428-.42zm29.317 23.838c.46-.041.674.193.869.62.22.483.213 1.247-.026 2.977a142.83 142.83 0 0 0-.564 4.842c-.133 1.382-.372 3.311-.53 4.287-.212 1.303-.204 2.973.027 6.289.229 3.279.236 4.61.025 4.864-.352.424-2.909.897-6.647 1.229-4.948.44-4.889.467-5.291-2.381-.553-3.918-1.122-7.056-1.748-9.657-.795-3.301-.8-3.957-.038-4.504 1.228-.881 7.261-4.909 8.533-5.698 3.177-1.969 4.625-2.799 5.391-2.867zM44.175 96.567c-.295-.021-.637.11-.924.397h-.001c-.229.229-.415.64-.415.914 0 1.735-3.661 7.036-5.051 7.314-.889.178-1.375 1.297-.739 1.7 1.43.906 3.951-.574 5.197-3.051l.524-1.042.539 1.219c.674 1.523 1.333 1.892 3.075 1.717 1.037-.104 1.544-.018 2.182.371.768.467 1.678.618 3.212.532.698-.039 1.205-1.038.789-1.555-.147-.182-.572-.331-.946-.331-.476 0-1.046-.396-1.902-1.323-1.318-1.426-1.763-1.562-2.906-.887-1.515.895-2.27-.299-1.995-3.153.095-.985.097-2.026.006-2.315a.7.7 0 0 0-.643-.506zm-13.279 4.267c-.384-.045-.887.111-1.124.349-.622.622-.524 1.418.343 2.798.845 1.345 2.114 2.095 3.879 2.294 1.845.208 1.927-1.226.111-1.952-.816-.327-1.164-.703-1.765-1.908-.591-1.186-.894-1.518-1.443-1.581zm-18.278 4.966c-1.107-.063-2.499 1.335-2.946 2.2-.146.283-.251.421-.326.452l-.014.023c.369.108.712.233.944.356.822.437 1.082.452 2.676.151 1.696-.32 1.825-.306 3.265.353.825.378 2.465.947 3.645 1.266 1.891.51 2.561.56 5.649.421 1.927-.087 4.267-.291 5.2-.454 1.529-.266 1.838-.239 3.139.276 1.414.56 1.681.57 13.085.492l11.642-.08 2.372.981c1.305.539 2.521.98 2.704.98s.794-.625 1.359-1.389c.819-1.108 1.544-1.674 3.58-2.797 2.544-1.403 3.163-1.853 1.874-1.363-1.569.596-4.381.128-4.884-.813-.244-.456-.381-.426-2.178.482-1.702.86-2.185.98-4.312 1.067-2.547.105-2.729.032-3.421-1.366-.434-.877-1.853-.906-2.704-.056-.563.562-.927.68-2.112.68-.82 0-1.794-.188-2.279-.44-.466-.242-1.62-.494-2.566-.559s-1.905-.216-2.131-.335-.566-.121-.757-.003-.576.153-.858.08c-.298-.078-.757.088-1.096.396-.32.292-.842.664-1.16.828-.772.398-3.598.381-4.003-.023-.176-.176-.587-.336-.913-.355-1.805-.105-3.636-.459-4.068-.786-.688-.521-1.273-.479-2.557.184l-1.577.798c-.826.396-3.474.55-4.428.257-2.301-.706-3.831-1.368-3.767-1.631.05-.202-.082-.204-.445-.01-.806.431-4.261.338-5.178-.14a1.11 1.11 0 0 0-.454-.122z" fill-rule="evenodd"/><path d="M98.001 7.539c-2.108.113-4.086.95-6.14 1.367-2.579.661-5.246 1.141-7.893.585a8.2 8.2 0 0 1-2.778-.964c-.584-.003-.543.832-.744 1.22-1.125 4.016-2.404 8.002-4.238 11.762-1.186 2.183-3.045 3.958-4.045 6.245-.193.725-.256 1.49-.388 2.218.285.536.832-.084 1.175-.241 1.578-.774 3.396-.814 5.119-.897.734-.022 1.713-.026 2.018.803.188.576.41 1.265.213 1.85-.518.87-1.633.623-2.427.972-.439.409.223.813.624.778 1.384.176 2.837-.098 4.177.077.082.494.269 1.174-.307 1.443-1.926 1.039-4.193 1.161-6.322 1.208-.851-.014-1.929.018-2.436-.845-.7-.865-.852-1.988-1.064-3.037-.242-.492-.853-.094-.863.331-.284 1.429-.314 2.93-1.078 4.221-1.009 1.91-2.205 3.804-3.896 5.18-1.416.953-3.207 1.072-4.695 1.853-.301.545.51.793.89.946 1.814.564 3.762.451 5.637.385 2.712-.127 5.241-1.219 7.866-1.805 2.486-.689 5.227-1.052 7.252-2.802.647-.607 1.57-1.099 1.846-1.991.137-.661-.144-1.398.013-2.009.465-.652 1.37-.354 2.031-.264 1.378.365 2.882 1.059 3.624 2.358a.53.53 0 0 1-.641.777c-.874.033-1.779-.435-2.626-.108-.953.614-1.5 1.685-2.413 2.359-1.241 1.054-2.632 2.073-4.3 2.26-1.23.282-2.451.644-3.661.959-.373.484.429.828.687 1.135 2.011 1.56 3.704 3.506 4.739 5.857.567 1.094.919 2.302 1.504 3.37.438.211.97-.208 1.433-.256 1.05-.331 2.198-.369 3.275-.231.424.496.206 1.374-.45 1.557-1.965.756-3.868 1.682-5.606 2.879-3.997 2.615-7.749 5.65-11.774 8.183-.784.556-1.668-.15-2.405-.45-3.674-1.877-6.53-4.921-9.482-7.722-1.393-1.436-2.91-2.774-4.08-4.404-.745-1.234.166-2.716-.461-3.987-1.037-2.528-2.564-4.957-2.648-7.744-.124-1.462.468-2.873.933-4.278.219-.587-.436-1.149-.994-.892-1.468.537-2.739 1.984-2.586 3.624.058 1.438.66 2.806.601 4.223.026 1.365-.267 2.832-1.155 3.92-1.056.427-2.204-.091-3.241-.337-1.307-.449-2.726-.778-3.796-1.71-.479-.505-.139-1.286-.013-1.877.757-2.121 1.84-4.329 1.446-6.642-.364-.753-1.312-1.013-2.072-1.071-.524.312.058.996.125 1.399.612 1.715-.407 3.413-.856 5.033-.459 1.578-1.221 3.126-1.253 4.794.009 1.128.931 2.201 2.106 2.143 1.937.229 3.918-.014 5.811.508.7.235 1.567.903 1.185 1.72-1.169.286-2.26-.382-3.357-.653-1.814-.133-3.648.225-5.447-.085-1.324-.528-1.769-2.039-1.877-3.336-.131-.584.021-1.304-.35-1.797-.582-.26-.692.602-.757.992-.223 1.722.065 3.568.936 5.081.456.836 1.454 1.124 2.34.912 1.523-.238 3.037-.782 4.575-.553.28.489-.002 1.188-.578 1.322-1.018.503-2.228.616-3.153 1.301-.332.43.283.724.654.626 1.874.091 3.762.021 5.584-.463.74-.181 1.663-.34 2.195.368 2.421 2.355 4.755 4.8 7.262 7.067 2.501 2.3 4.806 4.826 6.66 7.683 1.478 2.115 2.764 4.356 4.047 6.597.477.86 1.427 1.602 2.457 1.281 2.459-.736 4.586-2.266 6.655-3.737 2.24-1.609 4.516-3.19 6.931-4.526 2.732-1.221 5.646-2.05 8.581-2.548 1.135-.178 2.271-.279 3.425-.351.106.559.494 1.512-.306 1.736-1.698.496-3.603.282-5.198 1.126-.24.568-.025 1.304-.099 1.931.075 3.753-.433 7.468-.701 11.208-.155 3.758-.23 7.535.097 11.286.114 1.412.534 2.783 1.254 4.002.203.408.292.971-.198 1.218-.538.444-1.43.577-1.884-.062-.769-.677-1.486-1.672-2.634-1.607-3.083.002-6.153.418-9.201.85-.781.041-1.286.865-1.007 1.586.296.937.734 2.164 1.821 2.387 2.382.217 4.785.018 7.166-.139 2.7-.369 5.318-1.622 8.088-1.172.624.178.369 1.068.204 1.501-1.664.709-3.508.798-5.239 1.304-2.574.619-5.153 1.3-7.608 2.321-2.223.97-4.624 1.467-6.791 2.578-1.982.984-4.008 1.982-5.695 3.431-.308.471.401.606.73.506 4.505-.566 8.942-1.574 13.396-2.442 3.667-.783 7.346-1.498 11.054-2.033 4.935-1.076 10.021-.955 14.993-1.793 5.468-.917 10.988-1.484 16.45-2.455 3.097-.573 6.205-1.066 9.315-1.564 1.392-.319 2.912-.442 4.141-1.222.62-.512.112-1.377-.421-1.727-2.463-1.859-5.665-2.227-8.323-3.691-1.063-.583-.869-1.925-.944-2.933-.074-2.909.746-5.746.888-8.663.106-2.043.52-4.038.613-6.08.036-1.501-.702-3.07-2.125-3.697-3.647-1.763-7.798-1.763-11.744-2.157-.529-.089-1.319-.007-1.432-.704-.662-1.97-1.175-4.035-2.404-5.753-1.653-2.384-3.48-4.68-4.756-7.294-1.077-1.904-1.528-4.098-2.577-6.019-.431-.338-1.007.185-1.494.212-2.082.597-4.254.914-6.421.991-.942-1.116-2.296-2.251-2.127-3.875.234-2.246 1.233-4.32 2.078-6.385 1.615-3.764 4.551-6.725 6.512-10.289.395-.815 1.051-1.602 1.081-2.537-.182-1.193-1.477-1.748-2.547-1.876-3.6-.729-7.258-1.087-10.918-1.343-1.02-.083-2.18-.442-2.749-1.353-.386-1.2.531-2.284 1.075-3.269 2.088-3.123 4.639-5.904 6.932-8.888 1.432-1.844 3.142-3.668 3.655-6.018.036-.675.263-1.601-.327-2.098-.292-.154-.637-.158-.958-.158z" fill="#63e710" stroke="#63e710" stroke-width=".103"/><path d="M52.041 31.886l-8.677.215-4.834.362c-.437.068-.894.107-1.295.307-.133.067-.273.215-.23.374.125.121.321.105.482.132.978.065 1.958-.014 2.935-.051l10.701-.442 5.332-.346c.304-.041.627-.054.894-.224.076-.056.217-.086.23-.195-.045-.094-.183-.061-.267-.081l-3.269-.047-2.002-.003zm-18.569-1.194c-.354-.012-.735.107-.946.407-.302.436-.367.982-.426 1.496l-.195 2.77c-.007.085.088.054.134.031l2.099-.728c.449-.196.932-.443 1.169-.897.22-.462.113-.996-.013-1.468-.127-.409-.247-.831-.479-1.194-.154-.249-.448-.348-.725-.377a4.04 4.04 0 0 0-.617-.039z" fill="#fee82a" stroke="#fee82a" stroke-width=".018"/><g fill="#939393" stroke="#939393"><path d="M57.301 48.934c-.161-.022-.438.027-.352.253.32 1.139.855 2.252.797 3.463-.025.654-.048 1.376.393 1.913.892 1.14 1.975 2.114 2.977 3.155l2.909 2.699c.182.104.1-.197.066-.276l-1.19-4.809-.788-5.175c-.064-.383-.301-.786-.728-.816a24.28 24.28 0 0 0-4.086-.406z" stroke-width=".052"/><path d="M33.738 48.469c-1.095.075-2.491.305-2.754 1.593-2.913 7.431-5.571 14.961-7.809 22.624-1.278 4.437-2.891 8.757-4.511 13.074-1.771 5.192-3.665 10.357-5.124 15.645-.259 1.243 1.452 1.257 2.189 1.663 1.198.334 1.496-1.802 2.735-1.728 2 .721 2.913 3.006 4.857 3.777 2.277.42 4.332-1.533 6.609-.937.761-.352-.431-1.196-.299-1.841-.232-1.068 1.354-1.843 1.893-.789.848 1.177 1.453 2.661 2.919 3.201.541.144 1.141 1.027.365 1.279-.963-.059-.742 1.327.05 1.402 1.006.105 2.233 1.146 3.148.318.333-.884-1.778-1.082-.791-1.945 1.218-.762 2.369-1.646 3.189-2.858 1.346-1.674 2.286-3.62 2.902-5.666.213-.563 1.316-.673 1.191.151.317 1.721-.137 3.619.617 5.24.992 1.068 2.23-.858 3.306-.02 1.254.856 2.227 2.234 3.814 2.498.643.432-.454 1.773.628 1.763.933-.219 2.003-.584 2.778.195.39.337 1.501.292 1.155-.441-.74-.869.343-2.677 1.369-1.679.186.359.363.849.903.703 2.784-.616 4.946-2.64 7.255-4.173 1.051-.583 1.309.986 1.521 1.678.152.602.526 1.604 1.33 1.183 1.944-.602 3.801-2.151 3.862-4.328-.196-3.198-.997-6.321-1.264-9.516-.527-2.675-.95-5.465-2.182-7.919-1.155-.942-2.91-1.178-3.578-2.654-2.537-4.042-4.895-8.281-8.418-11.576-3.046-3.035-5.947-6.26-9.309-8.949-1.883-1.176-4.222-.201-6.259-.204-2.143.302-3.387-1.839-4.767-3.073-1.758-1.4-1.848-3.818-1.994-5.836-.047-.829.354-2.456-1.047-1.901l-.479.045z" stroke-width=".187"/></g><path d="M62.685 112.968l-2.348-.938-1.762-.806-5.92.045-16.359.258c-1.107-.081-1.608-.206-2.531-.665l-.867-.365-.847-.06c-.5-.001-1.129.103-1.533.169-2.533.412-7.665.656-8.978.396a32.18 32.18 0 0 1-5.476-1.711c-1.313-.559-1.472-.622-3.123-.329-1.503.266-1.919.33-2.637-.119-.305-.191-.57-.25-.663-.284l-.338-.093-.133-.283c-.119-.408-.106-1.175-.057-2.324s.227-2.315.374-2.633c.079-.17 1.112.328 1.985.766s1.938.959 2.248 1.037c1.077.272 1.271.587 2.522.436s1.48-.529 1.92-.756c.483-.25.727.059 1.04.344.509.463.473.28 1.023.687.267.198 1.144.358 2.913.887.707.212 1.036.262 1.335.225.673-.082.567-.163 1.154-.304 1.58-.38 1.034-.071 2.527-.872.763-.41.924-1.35 1.148-1.465.194-.1.676-.108.878-.093 0 0 .727.979 1.582 1.471.581.335 1.022.485 2.192.652.273.039.426-.36.733-.3.237.046.342-.139.4-.241.207-.368.54-.299.619-.299s.208.018.695.186c.975.337.935.887 1.242 1.159.589.521.862.358 1.183.214 1.041-.469 1.124-.429 2.074-1.271.623-.552 1.901-3.777 2.194-2.722.063.226.026.669.16.998s.373.639.785.886c2.064 1.234 1.058.819 1.838.87.774.05.923-.064 1.501-.004 1.342.137.881.339 1.65.558 1.833.522.997.366 2.148.368.932.001.786-.077 1.087-.215.182-.084.014-.264 1.18-.526.454-.102 2.142.15 2.623.351.364.152.861.731 1.169.912 1.566 1.157 4.368-.199 6.477-1.318.777-.373 1.8-1.184 1.965-1.202.263-.03 1.027 1.496 1.182 1.735.305.469 2.286.131 3.333.179 1.052.047 3.293-2.317 3.719-1.682.225.336.357.567.978 1.244.34.371.734.342 1.203.391s.824.27.836.27c.128.002-6.025 2.189-7.494 3.015-2.361 1.327-3.231 1.795-4.153 2.97-.587.748-1.516.421-1.66.415-.048-.002-.515.051-.938-.208z" fill="#599d2b" stroke="#599d2b" stroke-width=".066"/><path d="M77.877 30.382c-.798.016-1.601.107-2.37.329-.188.069-.411.117-.536.286-.065.121.078.223.181.253.314.061.637.006.951-.025.703-.096 1.408-.221 2.079-.457.124-.058.284-.097.354-.223.019-.112-.132-.129-.212-.141a3.44 3.44 0 0 0-.447-.021z" fill="#63e710"/><path d="M69.397 28.948c-.334.085-.507.444-.727.68-.393.474-.58 1.207-.19 1.741.312.444.545.961.502 1.516.057.956-.365 1.916-1.111 2.525-.313.239-.624.72-.321 1.084.142.21.419.267.623.108.616-.394 1.067-1.029 1.33-1.704.409-1.372.533-2.815.561-4.24-.035-.432.092-.916-.124-1.314-.121-.184-.306-.39-.543-.395z" fill="#f2f2f2"/><path d="M69.407 28.925c-.284.043-.45.328-.634.522-.31.377-.585.834-.53 1.343.036.515.471.881.602 1.368.155.439.092.92.06 1.372-.094.766-.558 1.425-1.121 1.93-.252.219-.503.588-.334.925.104.231.366.422.621.296.492-.238.853-.685 1.144-1.135.503-.856.622-1.866.751-2.833a22.39 22.39 0 0 0 .109-3.032c-.042-.342-.3-.729-.669-.756z" fill="#e6e6e6"/></svg>